<svg width="52" height="52" viewBox="0 0 52 52" fill="none" xmlns="http://www.w3.org/2000/svg">
<path d="M51.482 5.16544C51.8137 5.50154 51.9999 5.95676 51.9999 6.43134C51.9999 6.90592 51.8137 7.36115 51.482 7.69725L47.7793 11.4412L40.6792 4.26891L44.3819 0.524985C44.7148 0.188838 45.1662 0 45.6368 0C46.1075 0 46.5589 0.188838 46.8918 0.524985L51.482 5.16185V5.16544ZM45.2694 13.973L38.1693 6.80072L13.9829 31.2366C13.7875 31.4339 13.6404 31.6746 13.5533 31.9395L10.6955 40.5964C10.6437 40.7542 10.6363 40.9235 10.6743 41.0853C10.7122 41.2471 10.7939 41.3951 10.9103 41.5126C11.0267 41.6302 11.1732 41.7128 11.3334 41.7511C11.4935 41.7894 11.6611 41.782 11.8173 41.7296L20.3872 38.8428C20.649 38.7559 20.8873 38.6085 21.083 38.4125L45.2694 13.973Z" fill="#7056A6"/>
<path fill-rule="evenodd" clip-rule="evenodd" d="M0 46.6206C0 48.0472 0.561032 49.4155 1.55968 50.4242C2.55832 51.433 3.91277 51.9998 5.32507 51.9998H44.3756C45.7878 51.9998 47.1423 51.433 48.1409 50.4242C49.1396 49.4155 49.7006 48.0472 49.7006 46.6206V25.1038C49.7006 24.6282 49.5136 24.1722 49.1807 23.8359C48.8478 23.4996 48.3964 23.3107 47.9256 23.3107C47.4548 23.3107 47.0033 23.4996 46.6705 23.8359C46.3376 24.1722 46.1506 24.6282 46.1506 25.1038V46.6206C46.1506 47.0961 45.9636 47.5522 45.6307 47.8885C45.2978 48.2247 44.8463 48.4136 44.3756 48.4136H5.32507C4.8543 48.4136 4.40282 48.2247 4.06994 47.8885C3.73706 47.5522 3.55004 47.0961 3.55004 46.6206V7.17314C3.55004 6.69759 3.73706 6.24152 4.06994 5.90525C4.40282 5.56899 4.8543 5.38008 5.32507 5.38008H28.4004C28.8711 5.38008 29.3226 5.19116 29.6555 4.8549C29.9884 4.51863 30.1754 4.06256 30.1754 3.58701C30.1754 3.11146 29.9884 2.65539 29.6555 2.31912C29.3226 1.98286 28.8711 1.79395 28.4004 1.79395H5.32507C3.91277 1.79395 2.55832 2.36068 1.55968 3.36948C0.561032 4.37827 0 5.74649 0 7.17314V46.6206Z" fill="#7056A6"/>
</svg>
