<svg width="194" height="169" viewBox="0 0 194 169" fill="none" xmlns="http://www.w3.org/2000/svg">
<g filter="url(#filter0_d_903_3522)">
<path d="M166 85.7422L164.705 96.1669L157.367 94.8055L158.185 93.8962L158.347 93.699L166 85.7422Z" fill="#7056A6"/>
<path d="M160.728 97.2543L142.749 100.867L146 96.3066H155.594L160.728 97.2543Z" fill="#7056A6"/>
<path d="M144.259 95.6813L140.617 100.795L131.936 92.0204L136.109 90.6782L144.259 95.6813Z" fill="#7056A6"/>
<path d="M135.311 89.0521L132.376 89.9998L135.168 85.6558L135.311 89.0521Z" fill="#7056A6"/>
<path d="M156.693 92.8958L155.254 94.5218H145.808L137.084 89.1771L136.854 83.0436L138.79 80.0225L153.605 83.135L156.693 92.8958Z" fill="#7056A6"/>
<path d="M165.804 83.3853L158.079 91.4094L152.893 75.0195L165.804 83.3853Z" fill="#7056A6"/>
<path d="M152.983 81.1866L141.171 78.6995L150.76 74.1631L152.983 81.1866Z" fill="#7056A6"/>
<path d="M110.745 130.736L94.6162 131.006L105.506 125.194L110.745 130.736Z" fill="#7056A6"/>
<path d="M118.077 112.629L112.413 129.914L106.801 123.958L116.371 111.518L118.077 112.629Z" fill="#7056A6"/>
<path d="M90.6915 131.699L69.9452 143.158L57.1006 127.552L69.3572 107.14L90.6915 131.699Z" fill="#7056A6"/>
<path d="M67.8997 143.461L38.4676 144.625L37.3682 128.341L55.5905 128.538L67.8997 143.461Z" fill="#7056A6"/>
<path d="M36.6934 144.697L28.7725 145L35.7708 130.79L36.6934 144.697Z" fill="#7056A6"/>
<path d="M35.2886 127.715L27.296 143.946L18.7871 134.667L22.8551 118.618L35.2886 127.715Z" fill="#7056A6"/>
<path d="M48.2188 112.326L37.1525 125.194L36.2825 126.214L36.0865 126.089L23.1224 116.598L22.1807 111.912L48.2188 112.326Z" fill="#7056A6"/>
<path d="M68.0952 105.784L55.5039 126.748L38.3428 126.551L50.7954 112.057L56.3931 94.647L68.0952 105.784Z" fill="#7056A6"/>
<path d="M114.88 110.556L105.095 123.39L91.9156 130.414L70.6387 105.889L90.7445 94.791L114.88 110.556Z" fill="#7056A6"/>
<path d="M123.619 95.7533L118.666 110.878L91.8633 93.3768L97.5088 78.1992L123.619 95.7533Z" fill="#7056A6"/>
<path d="M98.0577 62.2373L96.2125 76.5538L91.3462 89.6773L89.8213 71.0167L98.0577 62.2373Z" fill="#7056A6"/>
<path d="M89.8363 93.2519L70.3711 103.975L74.0806 78.666L88.1346 72.1235L89.8363 93.2519Z" fill="#7056A6"/>
<path d="M72.0392 80.311L68.5926 103.797L57.2969 93.0737L72.0392 80.311Z" fill="#7056A6"/>
<path d="M54.9683 93.2516L49.4614 110.556L21.7884 110.127L17.4336 88.311L46.7797 84.145L54.9683 93.2516Z" fill="#7056A6"/>
<path d="M71.5082 78.3966L56.0536 91.7847L48.2188 83.0966L54.8633 72.6768L71.5082 78.3966Z" fill="#7056A6"/>
<path d="M52.5547 72.9653L46.5698 82.3653L17.066 86.5314L16 81.2926L52.5547 72.9653Z" fill="#7056A6"/>
<path d="M53.4584 70.9258L21.4736 78.2187L39.3423 68.5493L50.8484 55.2671L53.4584 70.9258Z" fill="#7056A6"/>
<path d="M97.4561 60.2747L88.3832 70.0307L73.2298 77.0928L55.2703 70.9255L52.4834 54.3047L97.4561 60.2747Z" fill="#7056A6"/>
<path d="M136.998 53.2656L133.657 63.6855L126.534 60.0054L128.666 56.306L136.998 53.2656Z" fill="#7056A6"/>
<path d="M126.874 55.873L124.775 59.4666L110.563 57.932L119.498 51.1201L126.874 55.873Z" fill="#7056A6"/>
<path d="M137.227 51.2839L128.398 54.4974L120.673 42.3986L119.464 32.7437L132.61 40.5898L137.227 51.2839Z" fill="#7056A6"/>
<path d="M118.116 49.9414L108.364 57.3739L93.8516 41.0369L107.404 39.2329L118.116 49.9414Z" fill="#7056A6"/>
<path d="M125.129 52.6211L120.014 49.3162L111.099 40.4117L109.11 38.4297L109.66 38.0545L117.638 32.604L118.757 41.3594L118.929 42.8074L119.359 43.4857L125.129 52.6211Z" fill="#7056A6"/>
<path d="M131.4 37.7849L119.182 30.492L118.011 21.2314L127.901 29.7078L131.4 37.7849Z" fill="#7056A6"/>
<path d="M117.385 30.5979L107.796 37.1596L98.9668 28.9719L103.532 20.7697L116.056 20L117.385 30.5979Z" fill="#7056A6"/>
<path d="M101.418 20.895L97.2977 28.3275L92.2354 29.1164L91.7383 21.4819L101.418 20.895Z" fill="#7056A6"/>
<path d="M105.735 37.66L92.8906 39.3582L92.3408 30.901L97.5657 30.0977L105.735 37.66Z" fill="#7056A6"/>
</g>
<defs>
<filter id="filter0_d_903_3522" x="0.9" y="0.9" width="192.2" height="167.2" filterUnits="userSpaceOnUse" color-interpolation-filters="sRGB">
<feFlood flood-opacity="0" result="BackgroundImageFix"/>
<feColorMatrix in="SourceAlpha" type="matrix" values="0 0 0 0 0 0 0 0 0 0 0 0 0 0 0 0 0 0 127 0" result="hardAlpha"/>
<feOffset dx="6" dy="2"/>
<feGaussianBlur stdDeviation="10.55"/>
<feComposite in2="hardAlpha" operator="out"/>
<feColorMatrix type="matrix" values="0 0 0 0 0.568627 0 0 0 0 0.447059 0 0 0 0 0.956863 0 0 0 1 0"/>
<feBlend mode="normal" in2="BackgroundImageFix" result="effect1_dropShadow_903_3522"/>
<feBlend mode="normal" in="SourceGraphic" in2="effect1_dropShadow_903_3522" result="shape"/>
</filter>
</defs>
</svg>
