<svg width="138" height="138" viewBox="0 0 138 138" fill="none" xmlns="http://www.w3.org/2000/svg">
<g filter="url(#filter0_d_318_755)">
<path d="M107.61 8.24284C106.964 8.63916 106.457 9.70026 106.457 10.6207C106.457 10.7614 106.752 12.0782 107.103 13.5484C107.453 15.0314 107.73 16.2587 107.712 16.2842C107.693 16.3098 84.6507 26.9592 56.5164 39.9609C28.3822 52.9499 5.21988 63.7016 5.04461 63.855C3.79933 64.9289 3.63329 67.5113 4.73099 68.9304C5.21988 69.5824 5.61652 69.7997 6.28067 69.8125C6.83414 69.8125 10.5792 68.0994 57.9831 46.1869C86.0897 33.198 109.132 22.5742 109.197 22.5742C109.252 22.5742 109.575 23.712 109.907 25.0927C110.248 26.4734 110.626 27.7902 110.746 28.0203C111.244 28.928 112.342 29.2348 113.08 28.6723C113.348 28.4805 114.648 26.5117 117.545 21.9477C119.795 18.4064 121.714 15.3254 121.816 15.1081C121.954 14.814 122 14.4944 122 13.8552C122 13.1265 121.963 12.9347 121.723 12.4489C121.557 12.1165 121.281 11.7841 121.031 11.6179C120.607 11.3367 108.818 7.99994 108.256 7.99994C108.108 7.99994 107.813 8.11499 107.61 8.24284Z" fill="#7056A6"/>
<path d="M91.4209 86.688V126H103.228H115.035V86.688V47.376H103.228H91.4209V86.688Z" fill="#7056A6"/>
<path d="M63.1025 93.2719V126H74.9097H86.7168V93.2719V60.5439H74.9097H63.1025V93.2719Z" fill="#7056A6"/>
<path d="M34.6914 99.792V126H46.4986H58.3057V99.792V73.584H46.4986H34.6914V99.792Z" fill="#7056A6"/>
<path d="M6.37305 106.376V126H18.1802H29.9874V106.376V86.7519H18.1802H6.37305V106.376Z" fill="#7056A6"/>
</g>
<defs>
<filter id="filter0_d_318_755" x="0" y="0" width="138" height="138" filterUnits="userSpaceOnUse" color-interpolation-filters="sRGB">
<feFlood flood-opacity="0" result="BackgroundImageFix"/>
<feColorMatrix in="SourceAlpha" type="matrix" values="0 0 0 0 0 0 0 0 0 0 0 0 0 0 0 0 0 0 127 0" result="hardAlpha"/>
<feOffset dx="6" dy="2"/>
<feGaussianBlur stdDeviation="5"/>
<feComposite in2="hardAlpha" operator="out"/>
<feColorMatrix type="matrix" values="0 0 0 0 0 0 0 0 0 0 0 0 0 0 0 0 0 0 0.5 0"/>
<feBlend mode="normal" in2="BackgroundImageFix" result="effect1_dropShadow_318_755"/>
<feBlend mode="normal" in="SourceGraphic" in2="effect1_dropShadow_318_755" result="shape"/>
</filter>
</defs>
</svg>
