<svg width="171" height="118" viewBox="0 0 171 118" fill="none" xmlns="http://www.w3.org/2000/svg">
<path d="M47.0891 14.396C57.7711 5.15054 71.3951 0.044395 85.5 0C114.249 0 138.115 21.4545 140.712 49.1202C157.726 51.5338 171 65.8333 171 83.3831C171 102.649 154.99 118 135.592 118H40.4094C18.2542 118 0 100.472 0 78.5022C0 59.59 13.5304 43.9282 31.4426 39.9591C32.9709 30.7015 38.9025 21.476 47.0891 14.396ZM54.0681 22.5165C45.9776 29.5215 41.7454 37.9638 41.7454 44.5718V49.3776L36.9894 49.9033C22.059 51.5445 10.6875 63.8487 10.6875 78.5022C10.6875 94.2391 23.8331 107.273 40.4094 107.273H135.592C149.411 107.273 160.312 96.4167 160.312 83.3831C160.312 70.3387 149.411 59.4827 135.592 59.4827H130.249V54.1191C130.259 30.3045 110.381 10.7273 85.5 10.7273C73.9562 10.7736 62.8087 14.9477 54.0681 22.5165Z" fill="#7056A6"/>
</svg>
