<svg width="175" height="138" viewBox="0 0 175 138" fill="none" xmlns="http://www.w3.org/2000/svg">
<g filter="url(#filter0_d_318_753)">
<path d="M24.4648 18.2016V28.4031H14.2324H4V65.608C4 89.6001 4.04844 103.563 4.12109 104.915C4.95664 118.865 10.2 125.023 21.9824 125.871C24.3801 126.043 143.573 126.043 144.953 125.871C147.096 125.601 149.567 124.728 151.226 123.646C155.101 121.114 157.535 117.476 158.661 112.498L158.939 111.306L158.964 59.6469L159 8H91.7324H24.4648V18.2016ZM149.191 63.8873L149.228 109.831L148.949 110.692C148.235 112.99 146.745 114.858 144.953 115.719L144.408 115.977L87.7727 116.014L31.1371 116.038L31.5125 115.215C32.3481 113.359 33.0867 110.937 33.4863 108.811C34.1281 105.419 34.0797 108.774 34.116 61.6503C34.1402 37.7197 34.1766 18.0786 34.2008 18.0172C34.225 17.9312 53.4789 17.9066 91.7082 17.9189L149.167 17.9557L149.191 63.8873ZM24.4648 70.3401C24.4648 102.371 24.4406 104.509 24.0289 107.287C23.4234 111.441 22.0793 114.072 20.1902 114.784C16.9207 116.026 14.5957 112.437 13.9297 105.161C13.857 104.288 13.8086 92.3287 13.8086 71.0775V38.3588H19.1367H24.4648V70.3401Z" fill="#7056A6"/>
<path d="M57.1602 39.2192V42.6606H91.3691H125.578V39.2192V35.7777H91.3691H57.1602V39.2192Z" fill="#7056A6"/>
<path d="M50.8633 57.0411V58.8848H65.0918H79.3203V57.0411V55.1975H65.0918H50.8633V57.0411Z" fill="#7056A6"/>
<path d="M89.6375 72.9213L89.6738 90.6572H111.531H133.389L133.425 72.9213L133.449 55.1976H111.531H89.6133L89.6375 72.9213Z" fill="#7056A6"/>
<path d="M50.8633 69.3568V71.2373H65.0918H79.3203V69.3568V67.4885H65.0918H50.8633V69.3568Z" fill="#7056A6"/>
<path d="M50.8027 81.2545V83.0981H65.0676H79.3203V81.2545V79.4108H65.0676H50.8027V81.2545Z" fill="#7056A6"/>
<path d="M50.8633 92.7467V94.6519H65.0918H79.3203V92.7467V90.8416H65.0918H50.8633V92.7467Z" fill="#7056A6"/>
</g>
<defs>
<filter id="filter0_d_318_753" x="0" y="0" width="175" height="138" filterUnits="userSpaceOnUse" color-interpolation-filters="sRGB">
<feFlood flood-opacity="0" result="BackgroundImageFix"/>
<feColorMatrix in="SourceAlpha" type="matrix" values="0 0 0 0 0 0 0 0 0 0 0 0 0 0 0 0 0 0 127 0" result="hardAlpha"/>
<feOffset dx="6" dy="2"/>
<feGaussianBlur stdDeviation="5"/>
<feComposite in2="hardAlpha" operator="out"/>
<feColorMatrix type="matrix" values="0 0 0 0 0 0 0 0 0 0 0 0 0 0 0 0 0 0 0.5 0"/>
<feBlend mode="normal" in2="BackgroundImageFix" result="effect1_dropShadow_318_753"/>
<feBlend mode="normal" in="SourceGraphic" in2="effect1_dropShadow_318_753" result="shape"/>
</filter>
</defs>
</svg>
