<svg width="215" height="162" viewBox="0 0 215 162" fill="none" xmlns="http://www.w3.org/2000/svg">
<g filter="url(#filter0_d_903_3457)">
<path d="M69.0891 30.396C79.7711 21.1505 93.3951 16.0444 107.5 16C136.249 16 160.115 37.4545 162.712 65.1202C179.726 67.5338 193 81.8333 193 99.3831C193 118.649 176.99 134 157.592 134H62.4094C40.2542 134 22 116.472 22 94.5022C22 75.59 35.5304 59.9282 53.4426 55.9591C54.9709 46.7015 60.9025 37.476 69.0891 30.396ZM76.0681 38.5165C67.9776 45.5215 63.7454 53.9638 63.7454 60.5718V65.3776L58.9894 65.9033C44.059 67.5445 32.6875 79.8487 32.6875 94.5022C32.6875 110.239 45.8331 123.273 62.4094 123.273H157.592C171.411 123.273 182.312 112.417 182.312 99.3831C182.312 86.3387 171.411 75.4827 157.592 75.4827H152.249V70.1191C152.259 46.3045 132.381 26.7273 107.5 26.7273C95.9562 26.7736 84.8087 30.9477 76.0681 38.5165Z" fill="#7056A6"/>
</g>
<defs>
<filter id="filter0_d_903_3457" x="0.9" y="0.9" width="213.2" height="160.2" filterUnits="userSpaceOnUse" color-interpolation-filters="sRGB">
<feFlood flood-opacity="0" result="BackgroundImageFix"/>
<feColorMatrix in="SourceAlpha" type="matrix" values="0 0 0 0 0 0 0 0 0 0 0 0 0 0 0 0 0 0 127 0" result="hardAlpha"/>
<feOffset dy="6"/>
<feGaussianBlur stdDeviation="10.55"/>
<feComposite in2="hardAlpha" operator="out"/>
<feColorMatrix type="matrix" values="0 0 0 0 0.568627 0 0 0 0 0.447059 0 0 0 0 0.956863 0 0 0 1 0"/>
<feBlend mode="normal" in2="BackgroundImageFix" result="effect1_dropShadow_903_3457"/>
<feBlend mode="normal" in="SourceGraphic" in2="effect1_dropShadow_903_3457" result="shape"/>
</filter>
</defs>
</svg>
