<svg width="123" height="138" viewBox="0 0 123 138" fill="none" xmlns="http://www.w3.org/2000/svg">
<g filter="url(#filter0_d_318_754)">
<path d="M51.9424 8.05244C35.1314 9.15949 20.1075 18.2742 11.3473 32.6844C7.36797 39.2437 4.99141 46.4303 4.16237 54.4565C3.95051 56.5876 3.9413 61.9199 4.16237 64.0509C5.15721 73.6639 8.47335 82.2897 14.0831 89.8361C16.6532 93.2956 19.9877 96.7367 23.442 99.4859C24.9527 100.676 26.97 102.106 27.0437 102.023C27.145 101.921 29.0058 93.7938 29.0058 93.4525C29.0058 93.3787 28.4991 92.9082 27.882 92.41C26.4542 91.266 23.4328 88.2585 22.18 86.7363C16.8927 80.3246 13.5765 72.686 12.5725 64.6045C11.246 53.9675 13.9542 43.1092 20.0983 34.4649C22.9078 30.5072 26.2607 27.1215 30.2033 24.2708C34.3024 21.3094 39.3595 18.9293 44.3153 17.6469C61.246 13.274 78.9781 19.4643 89.47 33.4224C91.1926 35.7104 92.2611 37.454 93.5691 40.074C95.0061 42.9431 95.9825 45.5724 96.7563 48.5983C100.45 63.1284 96.3786 78.4242 85.9604 89.1534C84.6984 90.4542 83.1049 91.9118 81.9995 92.779C81.6771 93.0281 81.4192 93.2772 81.4192 93.3325C81.41 93.5724 83.7681 101.691 83.8418 101.691C84.0721 101.691 87.3237 99.1999 88.8805 97.8346C89.8937 96.9489 92.0953 94.7809 93.1085 93.6647C99.7961 86.3304 104.254 76.9758 105.774 67.0953C106.216 64.2539 106.318 62.7594 106.327 59.3921C106.336 56.0894 106.263 54.8532 105.876 52.0855C102.753 29.6492 85.113 11.8441 62.7198 8.51371C62.0382 8.41223 60.8315 8.26463 60.0485 8.19082C58.3259 8.01554 53.6649 7.94173 51.9424 8.05244Z" fill="#7056A6"/>
<path d="M52.8636 22.5551C43.9653 23.0809 35.4079 27.0387 29.144 33.5242C23.6264 39.2255 20.3102 46.1538 19.1864 54.2722C18.9561 55.9605 18.9101 60.4071 19.1035 62.2983C19.8497 69.6326 22.6315 76.3118 27.2649 81.9209C28.0295 82.8434 30.6547 85.5834 30.7192 85.5188C30.7376 85.5096 31.1429 83.6461 31.6312 81.395C32.1102 79.1348 32.5247 77.2344 32.5523 77.1698C32.5799 77.1052 32.3496 76.7177 32.0457 76.321C30.0652 73.7102 28.3427 70.3614 27.4123 67.2616C26.4635 64.1527 26.0858 61.2559 26.1779 57.9624C26.3069 53.5895 27.2096 49.8901 29.098 46.0154C32.801 38.3952 39.8478 32.6385 47.9355 30.6181C50.6805 29.9355 52.0346 29.7786 55.2586 29.7878C58.1787 29.7878 59.2748 29.8986 61.5961 30.4244C68.4311 31.9651 74.483 35.9781 78.6742 41.7348C81.5114 45.628 83.2616 50.0562 83.9708 55.1025C84.2011 56.7354 84.1919 60.7577 83.9616 62.4367C83.4826 65.9609 82.5431 68.9499 80.9587 72.0497C80.1757 73.5903 78.8493 75.6476 77.836 76.9022L77.182 77.7049L78.2597 81.6995C78.8493 83.8859 79.3467 85.7033 79.3651 85.731C79.448 85.8233 82.5799 82.539 83.3813 81.5334C87.9963 75.7306 90.6492 69.0791 91.2848 61.7633C91.4322 60.0935 91.3493 55.7852 91.1374 54.2722C90.686 50.8865 89.7741 47.4823 88.5582 44.6316C84.2656 34.5666 75.6897 26.9372 65.2992 23.9297C62.637 23.1547 59.9841 22.7027 57.1562 22.5366C55.3323 22.4352 54.8073 22.4352 52.8636 22.5551Z" fill="#7056A6"/>
<path d="M53.8586 47.8143C49.9161 48.3125 46.5724 50.6834 44.8682 54.1891C44.0484 55.8774 43.7168 57.3258 43.7168 59.2078C43.7168 61.1359 44.0668 62.6857 44.9143 64.374C46.5171 67.5937 49.649 69.937 53.177 70.5551C54.2271 70.7303 56.1063 70.7303 57.1564 70.5551C59.9751 70.0569 62.6004 68.4424 64.3413 66.1268C67.0956 62.4643 67.3995 57.4088 65.0967 53.488C63.4202 50.6281 60.7212 48.6723 57.5156 47.9896C56.5484 47.7866 54.743 47.7036 53.8586 47.8143Z" fill="#7056A6"/>
<path d="M45.3107 73.5441C44.5369 73.7839 43.8921 74.3375 43.5421 75.0755L43.2842 75.629V99.7628V123.897L43.5605 124.459C43.8829 125.087 44.3159 125.52 44.933 125.806C45.3568 126 45.3844 126 55.1209 126H64.8851L65.3825 125.723C66.0089 125.382 66.534 124.782 66.7458 124.173C66.9024 123.712 66.9117 122.587 66.9117 99.7536C66.9117 76.9206 66.9024 75.7951 66.7458 75.3338C66.534 74.7249 65.9629 74.0791 65.3549 73.7563L64.8851 73.5072L55.2131 73.4887C49.898 73.4795 45.4397 73.5072 45.3107 73.5441Z" fill="#7056A6"/>
</g>
<defs>
<filter id="filter0_d_318_754" x="0" y="0" width="122.328" height="138" filterUnits="userSpaceOnUse" color-interpolation-filters="sRGB">
<feFlood flood-opacity="0" result="BackgroundImageFix"/>
<feColorMatrix in="SourceAlpha" type="matrix" values="0 0 0 0 0 0 0 0 0 0 0 0 0 0 0 0 0 0 127 0" result="hardAlpha"/>
<feOffset dx="6" dy="2"/>
<feGaussianBlur stdDeviation="5"/>
<feComposite in2="hardAlpha" operator="out"/>
<feColorMatrix type="matrix" values="0 0 0 0 0 0 0 0 0 0 0 0 0 0 0 0 0 0 0.5 0"/>
<feBlend mode="normal" in2="BackgroundImageFix" result="effect1_dropShadow_318_754"/>
<feBlend mode="normal" in="SourceGraphic" in2="effect1_dropShadow_318_754" result="shape"/>
</filter>
</defs>
</svg>
