<svg width="52" height="52" viewBox="0 0 52 52" fill="none" xmlns="http://www.w3.org/2000/svg">
<path d="M18.4593 18.9836L23.8711 25.5215L18.4626 32.0594C17.2077 33.3308 15.6148 34.1927 13.8844 34.5367C12.154 34.8807 10.3632 34.6914 8.73713 33.9927C7.11111 33.294 5.72246 32.117 4.74579 30.6097C3.76913 29.1025 3.24803 27.3322 3.24803 25.5215C3.24803 23.7108 3.76913 21.9406 4.74579 20.4333C5.72246 18.926 7.11111 17.749 8.73713 17.0503C10.3632 16.3516 12.154 16.1623 13.8844 16.5063C15.6148 16.8503 17.2077 17.7122 18.4626 18.9836H18.4593ZM26 22.9437L20.8515 16.7164L20.806 16.6663C19.1013 14.9155 16.9295 13.7232 14.5653 13.2404C12.201 12.7575 9.75044 13.0056 7.52346 13.9535C5.29648 14.9013 3.39308 16.5062 2.05392 18.5653C0.714766 20.6244 0 23.0451 0 25.5215C0 27.9979 0.714766 30.4187 2.05392 32.4777C3.39308 34.5368 5.29648 36.1417 7.52346 37.0895C9.75044 38.0374 12.201 38.2855 14.5653 37.8026C16.9295 37.3198 19.1013 36.1275 20.806 34.3767L20.8515 34.3266L26 28.0993L31.1484 34.3266L31.194 34.3767C32.8987 36.1275 35.0705 37.3198 37.4347 37.8026C39.799 38.2855 42.2496 38.0374 44.4765 37.0895C46.7035 36.1417 48.6069 34.5368 49.9461 32.4777C51.2852 30.4187 52 27.9979 52 25.5215C52 23.0451 51.2852 20.6244 49.9461 18.5653C48.6069 16.5062 46.7035 14.9013 44.4765 13.9535C42.2496 13.0056 39.799 12.7575 37.4347 13.2404C35.0705 13.7232 32.8987 14.9155 31.194 16.6663L31.1484 16.7164L26 22.9437ZM28.1322 25.5215L33.5374 18.9836C34.7923 17.7122 36.3852 16.8503 38.1156 16.5063C39.846 16.1623 41.6368 16.3516 43.2629 17.0503C44.8889 17.749 46.2775 18.926 47.2542 20.4333C48.2309 21.9406 48.752 23.7108 48.752 25.5215C48.752 27.3322 48.2309 29.1025 47.2542 30.6097C46.2775 32.117 44.8889 33.294 43.2629 33.9927C41.6368 34.6914 39.846 34.8807 38.1156 34.5367C36.3852 34.1927 34.7923 33.3308 33.5374 32.0594L28.1322 25.5215Z" fill="#7056A6"/>
</svg>
