<svg width="52" height="52" viewBox="0 0 52 52" fill="none" xmlns="http://www.w3.org/2000/svg">
<g clip-path="url(#clip0_368_401)">
<path d="M26.0058 12.6679C18.6278 12.6679 12.6767 18.6203 12.6767 26C12.6767 33.3796 18.6278 39.3321 26.0058 39.3321C33.3838 39.3321 39.3349 33.3796 39.3349 26C39.3349 18.6203 33.3838 12.6679 26.0058 12.6679ZM26.0058 34.6677C21.2379 34.6677 17.3401 30.7807 17.3401 26C17.3401 21.2195 21.2263 17.3324 26.0058 17.3324C30.7853 17.3324 34.6716 21.2195 34.6716 26C34.6716 30.7807 30.7736 34.6677 26.0058 34.6677ZM42.9892 12.1225C42.9892 13.8514 41.5972 15.2322 39.8801 15.2322C38.1517 15.2322 36.7713 13.8398 36.7713 12.1225C36.7713 10.4052 38.1634 9.01283 39.8801 9.01283C41.5972 9.01283 42.9892 10.4052 42.9892 12.1225ZM51.8173 15.2786C51.6202 11.113 50.6689 7.42319 47.618 4.38314C44.5786 1.34308 40.8895 0.39161 36.7248 0.182752C32.4327 -0.0609172 19.5674 -0.0609172 15.2752 0.182752C11.1222 0.380006 7.43315 1.33147 4.38215 4.37154C1.33118 7.41159 0.391524 11.1014 0.182711 15.267C-0.0609036 19.5602 -0.0609036 32.4283 0.182711 36.7214C0.379923 40.8871 1.33118 44.5768 4.38215 47.617C7.43315 50.6569 11.1105 51.6085 15.2752 51.8173C19.5674 52.0609 32.4327 52.0609 36.7248 51.8173C40.8895 51.6199 44.5786 50.6686 47.618 47.617C50.6572 44.5768 51.6085 40.8871 51.8173 36.7214C52.0609 32.4283 52.0609 19.5718 51.8173 15.2786ZM46.2723 41.3278C45.3675 43.6023 43.6156 45.3542 41.3304 46.271C37.908 47.6284 29.7877 47.3151 26.0058 47.3151C22.224 47.3151 14.0919 47.617 10.6813 46.271C8.4076 45.3659 6.6559 43.6138 5.73943 41.3278C4.38215 37.9049 4.69537 29.7828 4.69537 26C4.69537 22.2174 4.39377 14.0835 5.73943 10.6721C6.64428 8.39788 8.39598 6.64576 10.6813 5.72911C14.1035 4.37154 22.224 4.68482 26.0058 4.68482C29.7877 4.68482 37.9197 4.38314 41.3304 5.72911C43.6041 6.63417 45.3558 8.38626 46.2723 10.6721C47.6295 14.0951 47.3162 22.2174 47.3162 26C47.3162 29.7828 47.6295 37.9166 46.2723 41.3278Z" fill="#F9F9F9"/>
</g>
<defs>
<clipPath id="clip0_368_401">
<rect width="52" height="52" fill="white"/>
</clipPath>
</defs>
</svg>
