<svg width="52" height="52" viewBox="0 0 52 52" fill="none" xmlns="http://www.w3.org/2000/svg">
<g clip-path="url(#clip0_441_1645)">
<path d="M47.8389 0.00466347H4.4524C3.89318 -0.0215291 3.33426 0.0628015 2.80768 0.252877C2.28109 0.442952 1.79718 0.735001 1.38359 1.11229C0.970038 1.48961 0.634938 1.9448 0.397531 2.45175C0.160124 2.95874 0.0250244 3.50755 0 4.06679V47.5479C0.0327592 48.7181 0.512383 49.8318 1.34037 50.6595C2.16835 51.4875 3.2819 51.9672 4.4524 52H47.8389C48.9767 51.9493 50.0495 51.4547 50.8272 50.6224C51.6049 49.7902 52.0255 48.6866 51.9988 47.5479V4.06679C52.0082 3.52247 51.9062 2.98201 51.6992 2.4785C51.4921 1.97502 51.1844 1.51912 50.7947 1.13874C50.4054 0.758399 49.9423 0.461638 49.434 0.266623C48.9257 0.0716082 48.3829 -0.017532 47.8389 0.00466347ZM16.2496 43.3558H8.6773V20.1854H16.2496V43.3558ZM12.6422 16.6756C12.1138 16.6941 11.5873 16.603 11.0958 16.4082C10.6042 16.2134 10.1583 15.9191 9.78595 15.5437C9.4136 15.1684 9.1229 14.7201 8.93213 14.227C8.74132 13.7339 8.65458 13.2067 8.6773 12.6785C8.65393 12.1446 8.74243 11.6117 8.93713 11.114C9.13183 10.6163 9.42842 10.1648 9.80785 9.78841C10.1873 9.41203 10.6412 9.11914 11.1405 8.92851C11.6398 8.73785 12.1735 8.65368 12.7072 8.68137C13.2356 8.66298 13.7621 8.754 14.2537 8.94879C14.7452 9.14357 15.1912 9.4379 15.5635 9.81327C15.9358 10.1886 16.2265 10.6369 16.4173 11.13C16.6081 11.6231 16.6948 12.1503 16.6721 12.6785C16.6955 13.2124 16.607 13.7453 16.4123 14.243C16.2176 14.7407 15.921 15.1922 15.5416 15.5686C15.1621 15.945 14.7082 16.2379 14.2089 16.4285C13.7096 16.6192 13.1759 16.7033 12.6422 16.6756ZM43.354 43.3558H35.7492V30.682C35.7492 27.6597 34.6767 25.5799 31.9793 25.5799C31.1414 25.5871 30.326 25.8532 29.6455 26.342C28.9646 26.8307 28.4518 27.518 28.1769 28.3097C27.9656 28.9031 27.8772 29.5332 27.9169 30.162V43.3558H20.442V20.1854H27.9169V23.4351C28.5815 22.2142 29.5704 21.2009 30.7748 20.5068C31.9793 19.813 33.352 19.4655 34.7417 19.5029C39.6491 19.5029 43.354 22.7527 43.354 29.6745V43.3558Z" fill="#7056A6"/>
</g>
<defs>
<clipPath id="clip0_441_1645">
<rect width="52" height="52" fill="white"/>
</clipPath>
</defs>
</svg>
