<svg width="50" height="50" viewBox="0 0 50 50" fill="none" xmlns="http://www.w3.org/2000/svg">
<g clip-path="url(#clip0_645_2455)">
<path d="M9.42721 24.9998L3.75256 18.7318C2.50214 20.8209 1.25129 22.9102 0 24.9998C0.518102 22.1017 1.0362 19.2032 1.55431 16.3042C2.55867 14.3997 3.56336 12.4954 4.56837 10.5916L6.04601 14.9744L6.49469 16.3065L9.42721 24.9998Z" fill="#6650AB"/>
<path d="M32.3678 1.10465C30.7481 3.92714 29.1284 6.74962 27.5087 9.57211L21.2382 6.55414C18.6494 5.30697 16.0601 4.06024 13.4702 2.81393L24.9998 0L32.3678 1.10465Z" fill="#6650AB"/>
<path d="M32.3685 1.10474L31.2667 9.79378L27.5087 9.5722C29.1282 6.74906 30.7479 3.92657 32.3678 1.10474H32.3685Z" fill="#9172F4"/>
<path d="M25.0005 50.0016L13.4695 47.188C10.6828 44.8401 7.89582 42.493 5.10864 40.1468C7.89626 39.9922 10.6832 39.8381 13.4695 39.6845C15.2181 39.5866 16.9675 39.4898 18.7176 39.394C18.9427 39.7768 19.1705 40.1592 19.3973 40.5403C21.2648 43.6942 23.1325 46.8479 25.0005 50.0016Z" fill="#9172F4"/>
<path d="M45.4586 10.6297L43.4565 16.3885L38.0655 16.4798L37.3072 10.1495L36.5918 4.17725L45.4586 10.6297Z" fill="#9172F4"/>
<path d="M45.4431 39.394C42.4323 42.0112 39.4226 44.6281 36.4139 47.2449L36.4093 47.2494C36.6016 44.6312 36.7943 42.0127 36.9873 39.394H45.4431Z" fill="#3A2E62"/>
<path d="M48.6396 33.1511C48.6396 33.1511 48.6396 33.1511 48.6396 33.1527C47.5737 35.2321 46.5084 37.3114 45.4436 39.3907L44.811 37.5629L40.4623 24.9998L48.6396 33.1511Z" fill="#9172F4"/>
<path d="M30.0205 49.5087L25.0005 50.0016C23.1328 46.8469 21.2647 43.6931 19.3964 40.5403C19.1689 40.1592 18.9415 39.7768 18.7167 39.394L24.1204 40.6706L27.4895 45.7178L30.0205 49.5087Z" fill="#6650AB"/>
<path d="M45.443 39.3941H31.1654L37.4106 33.6405C38.4286 30.7598 39.4458 27.879 40.4623 24.9983L44.8104 37.5647L45.443 39.3941Z" fill="#6650AB"/>
<path d="M18.7176 39.394C16.9677 39.4906 15.2183 39.5874 13.4695 39.6844C10.6824 39.8378 7.89539 39.9919 5.10864 40.1468C7.89626 38.6561 10.6828 37.1651 13.4682 35.6736L18.7176 39.394Z" fill="#3A2E62"/>
<path d="M9.42721 24.9998L1.35937 33.1522L0 24.9998C1.25064 22.9103 2.50149 20.821 3.75256 18.7319L9.42721 24.9998Z" fill="#9172F4"/>
<path d="M18.9226 10.5916L12.0348 16.3055C11.1654 19.2045 10.2958 22.103 9.42621 25.0011L6.49531 16.3042L6.04663 14.9721L7.39983 12.7554L8.72183 10.5916H18.9226Z" fill="#3A2E62"/>
<path d="M44.2386 20.887L40.4623 24.9998L38.0656 16.4797L42.3584 19.5445L44.2386 20.887Z" fill="#3A2E62"/>
<path d="M50 24.9998L48.6396 33.1512L40.4623 24.9998L44.2386 20.887L42.3584 19.5455V19.5445L38.0656 16.4797L43.4566 16.3884L45.4586 10.6296L48.4457 16.3043L50 24.9998Z" fill="#6650AB"/>
<path d="M27.5086 9.57206L18.9226 10.5916H8.72083L7.39882 12.7577L6.04563 14.9744L4.56897 10.5916L13.4689 2.81323C16.0583 4.06019 18.6479 5.30692 21.2378 6.55345L27.5086 9.57206Z" fill="#9172F4"/>
<path d="M9.42721 24.9998C8.6414 27.7573 7.85525 30.5146 7.06879 33.2716L6.78125 34.2814L1.35938 33.1521L9.42721 24.9998Z" fill="#3A2E62"/>
<path d="M28.9272 43.2438L27.4895 45.7173L24.1213 40.6716C25.7237 41.5283 27.3257 42.3857 28.9272 43.2438Z" fill="#3A2E62"/>
<path d="M14.6558 7.14056L13.8536 7.41185C13.8431 7.41528 13.8336 7.42113 13.8258 7.42892C13.818 7.43671 13.8122 7.44622 13.8087 7.45669L13.5375 8.25886C13.5327 8.27324 13.5236 8.28576 13.5114 8.29463C13.4991 8.30351 13.4844 8.30829 13.4692 8.30829C13.4541 8.30829 13.4394 8.30351 13.4271 8.29463C13.4149 8.28576 13.4057 8.27324 13.401 8.25886L13.1304 7.45669C13.1267 7.44628 13.1208 7.43684 13.1129 7.42907C13.1051 7.42131 13.0956 7.41542 13.0852 7.41185L12.2827 7.14056C12.2684 7.13577 12.2561 7.12663 12.2473 7.11442C12.2385 7.1022 12.2338 7.08754 12.2338 7.0725C12.2338 7.05746 12.2385 7.04279 12.2473 7.03058C12.2561 7.01837 12.2684 7.00922 12.2827 7.00443L13.0852 6.73379C13.0956 6.73 13.1051 6.72395 13.1129 6.71609C13.1207 6.70823 13.1266 6.69874 13.1304 6.68831L13.401 5.88614C13.4059 5.87192 13.4151 5.85957 13.4273 5.85084C13.4395 5.8421 13.4542 5.8374 13.4692 5.8374C13.4843 5.8374 13.4989 5.8421 13.5112 5.85084C13.5234 5.85957 13.5326 5.87192 13.5375 5.88614L13.8081 6.68831C13.8116 6.69881 13.8175 6.70837 13.8252 6.71626C13.833 6.72414 13.8425 6.73014 13.8529 6.73379L14.6551 7.00443C14.6695 7.00898 14.6822 7.01801 14.6912 7.0302C14.7001 7.04239 14.705 7.05712 14.7051 7.07226C14.7052 7.0874 14.7004 7.10218 14.6916 7.11445C14.6827 7.12673 14.6702 7.13587 14.6558 7.14056Z" fill="#F9F9F9"/>
<path d="M43.5738 11.6313L42.7717 11.9026C42.7612 11.906 42.7517 11.9119 42.7439 11.9196C42.7361 11.9274 42.7303 11.9369 42.7268 11.9474L42.4555 12.7499C42.4508 12.7643 42.4417 12.7768 42.4294 12.7857C42.4172 12.7946 42.4025 12.7993 42.3873 12.7993C42.3722 12.7993 42.3574 12.7946 42.3452 12.7857C42.3329 12.7768 42.3238 12.7643 42.3191 12.7499L42.0485 11.9474C42.0448 11.937 42.0389 11.9276 42.031 11.9198C42.0232 11.912 42.0137 11.9061 42.0033 11.9026L41.2008 11.6313C41.1865 11.6265 41.1741 11.6174 41.1654 11.6051C41.1566 11.5929 41.1519 11.5783 41.1519 11.5632C41.1519 11.5482 41.1566 11.5335 41.1654 11.5213C41.1741 11.5091 41.1865 11.4999 41.2008 11.4952L42.0033 11.2245C42.0137 11.2207 42.0231 11.2147 42.0309 11.2068C42.0388 11.199 42.0447 11.1895 42.0485 11.179L42.3191 10.3769C42.324 10.3626 42.3332 10.3503 42.3454 10.3416C42.3576 10.3328 42.3723 10.3281 42.3873 10.3281C42.4024 10.3281 42.417 10.3328 42.4292 10.3416C42.4415 10.3503 42.4507 10.3626 42.4555 10.3769L42.7268 11.179C42.7303 11.1895 42.7362 11.1991 42.744 11.207C42.7517 11.2149 42.7612 11.2209 42.7717 11.2245L43.5738 11.4952C43.5881 11.4999 43.6005 11.5091 43.6093 11.5213C43.6181 11.5335 43.6228 11.5482 43.6228 11.5632C43.6228 11.5783 43.6181 11.5929 43.6093 11.6051C43.6005 11.6174 43.5881 11.6265 43.5738 11.6313Z" fill="#F9F9F9"/>
<path d="M18.4259 45.7855L17.6234 46.0568C17.613 46.0603 17.6035 46.0661 17.5958 46.0739C17.5881 46.0817 17.5823 46.0912 17.5789 46.1016L17.3076 46.9038C17.3029 46.9182 17.2938 46.9307 17.2815 46.9396C17.2692 46.9484 17.2545 46.9532 17.2394 46.9532C17.2242 46.9532 17.2095 46.9484 17.1972 46.9396C17.185 46.9307 17.1759 46.9182 17.1711 46.9038L16.9005 46.1029C16.8969 46.0925 16.8909 46.083 16.883 46.0752C16.8751 46.0675 16.8655 46.0616 16.855 46.0581L16.0528 45.7868C16.0386 45.782 16.0262 45.7729 16.0174 45.7607C16.0086 45.7484 16.0039 45.7338 16.0039 45.7187C16.0039 45.7037 16.0086 45.689 16.0174 45.6768C16.0262 45.6646 16.0386 45.6555 16.0528 45.6507L16.855 45.38C16.8655 45.3763 16.875 45.3703 16.8829 45.3624C16.8907 45.3545 16.8968 45.345 16.9005 45.3345L17.1711 44.5324C17.176 44.5182 17.1852 44.5058 17.1974 44.4971C17.2097 44.4883 17.2243 44.4836 17.2394 44.4836C17.2544 44.4836 17.2691 44.4883 17.2813 44.4971C17.2935 44.5058 17.3027 44.5182 17.3076 44.5324L17.5789 45.3345C17.5824 45.345 17.5882 45.3545 17.5959 45.3624C17.6036 45.3703 17.613 45.3763 17.6234 45.38L18.4259 45.6507C18.4397 45.6557 18.4516 45.6649 18.46 45.677C18.4685 45.689 18.473 45.7034 18.473 45.7181C18.473 45.7328 18.4685 45.7471 18.46 45.7592C18.4516 45.7713 18.4397 45.7804 18.4259 45.7855Z" fill="#F9F9F9"/>
<path d="M15.6476 42.9727L15.2467 43.1085C15.2414 43.11 15.2365 43.1129 15.2326 43.1168C15.2286 43.1207 15.2258 43.1256 15.2243 43.1309L15.0885 43.5319C15.0862 43.5391 15.0817 43.5455 15.0755 43.55C15.0694 43.5545 15.062 43.5569 15.0544 43.5569C15.0467 43.5569 15.0393 43.5545 15.0332 43.55C15.0271 43.5455 15.0225 43.5391 15.0203 43.5319L14.8851 43.1309C14.8833 43.1257 14.8803 43.1209 14.8764 43.117C14.8724 43.1131 14.8676 43.1102 14.8624 43.1085L14.4611 42.9727C14.454 42.9704 14.4477 42.9658 14.4433 42.9597C14.4389 42.9536 14.4365 42.9463 14.4365 42.9388C14.4365 42.9312 14.4389 42.9239 14.4433 42.9178C14.4477 42.9117 14.454 42.9072 14.4611 42.9048L14.8624 42.7693C14.8676 42.7675 14.8724 42.7645 14.8763 42.7606C14.8803 42.7566 14.8833 42.7518 14.8851 42.7466L15.0203 42.3457C15.0227 42.3385 15.0273 42.3324 15.0334 42.328C15.0395 42.3236 15.0468 42.3213 15.0544 42.3213C15.0619 42.3213 15.0692 42.3236 15.0753 42.328C15.0814 42.3324 15.086 42.3385 15.0885 42.3457L15.2243 42.7466C15.2259 42.7519 15.2288 42.7567 15.2327 42.7607C15.2366 42.7646 15.2414 42.7676 15.2467 42.7693L15.6476 42.9048C15.6548 42.9072 15.661 42.9117 15.6654 42.9178C15.6698 42.9239 15.6722 42.9312 15.6722 42.9388C15.6722 42.9463 15.6698 42.9536 15.6654 42.9597C15.661 42.9658 15.6548 42.9704 15.6476 42.9727Z" fill="#F9F9F9"/>
<path d="M42.1371 15.007L41.7359 15.1428C41.7306 15.1445 41.7259 15.1474 41.722 15.1513C41.7181 15.1552 41.7152 15.16 41.7135 15.1652L41.578 15.5661C41.5757 15.5734 41.5712 15.5797 41.565 15.5843C41.5589 15.5888 41.5515 15.5912 41.5439 15.5912C41.5363 15.5912 41.5288 15.5888 41.5227 15.5843C41.5166 15.5797 41.512 15.5734 41.5098 15.5661L41.3746 15.1652C41.3728 15.16 41.3698 15.1552 41.3658 15.1514C41.3619 15.1475 41.3571 15.1445 41.3519 15.1428L40.9506 15.007C40.9435 15.0046 40.9372 15.0001 40.9328 14.994C40.9284 14.9879 40.926 14.9805 40.926 14.973C40.926 14.9655 40.9284 14.9582 40.9328 14.9521C40.9372 14.946 40.9435 14.9414 40.9506 14.9391L41.3519 14.8036C41.3571 14.8017 41.3618 14.7987 41.3658 14.7948C41.3697 14.7908 41.3727 14.7861 41.3746 14.7808L41.5098 14.3796C41.5122 14.3725 41.5168 14.3663 41.5229 14.3619C41.529 14.3576 41.5364 14.3552 41.5439 14.3552C41.5514 14.3552 41.5587 14.3576 41.5648 14.3619C41.5709 14.3663 41.5755 14.3725 41.578 14.3796L41.7135 14.7808C41.7152 14.7861 41.7182 14.7909 41.722 14.7948C41.7259 14.7987 41.7307 14.8017 41.7359 14.8036L42.1371 14.9391C42.1443 14.9414 42.1505 14.946 42.1549 14.9521C42.1593 14.9582 42.1617 14.9655 42.1617 14.973C42.1617 14.9805 42.1593 14.9879 42.1549 14.994C42.1505 15.0001 42.1443 15.0046 42.1371 15.007Z" fill="#F9F9F9"/>
<path d="M4.68892 23.6762L4.28865 23.8116C4.28345 23.8134 4.27873 23.8163 4.27489 23.8202C4.27105 23.8241 4.26819 23.8288 4.26655 23.8341L4.13075 24.2353C4.12831 24.2424 4.12371 24.2486 4.11759 24.253C4.11148 24.2573 4.10415 24.2597 4.09663 24.2597C4.08912 24.2597 4.08179 24.2573 4.07567 24.253C4.06955 24.2486 4.06496 24.2424 4.06252 24.2353L3.92736 23.8341C3.92548 23.8289 3.92247 23.8242 3.91853 23.8203C3.9146 23.8164 3.90984 23.8134 3.90462 23.8116L3.50337 23.6762C3.49626 23.6737 3.49009 23.6691 3.48572 23.663C3.48135 23.6569 3.479 23.6496 3.479 23.642C3.479 23.6345 3.48135 23.6272 3.48572 23.6211C3.49009 23.615 3.49626 23.6104 3.50337 23.6079L3.90462 23.4724C3.90985 23.4706 3.91461 23.4676 3.91854 23.4636C3.92247 23.4597 3.92548 23.4549 3.92736 23.4497L4.06122 23.0488C4.06366 23.0417 4.06826 23.0355 4.07437 23.0311C4.08049 23.0268 4.08782 23.0244 4.09533 23.0244C4.10285 23.0244 4.11018 23.0268 4.11629 23.0311C4.12241 23.0355 4.12701 23.0417 4.12945 23.0488L4.26525 23.4497C4.26689 23.455 4.26975 23.4598 4.27359 23.4637C4.27742 23.4677 4.28214 23.4707 4.28735 23.4724L4.68859 23.6079C4.69572 23.6103 4.70191 23.6149 4.70631 23.621C4.71071 23.6271 4.71309 23.6344 4.71313 23.6419C4.71316 23.6494 4.71085 23.6568 4.70651 23.6629C4.70217 23.6691 4.69602 23.6737 4.68892 23.6762Z" fill="#F9F9F9"/>
<path d="M46.0516 32.8487L45.6503 32.9845C45.645 32.986 45.6402 32.9889 45.6364 32.9928C45.6325 32.9968 45.6297 33.0016 45.6282 33.0069L45.4924 33.4082C45.49 33.4153 45.4854 33.4214 45.4793 33.4258C45.4731 33.4302 45.4658 33.4325 45.4583 33.4325C45.4508 33.4325 45.4434 33.4302 45.4373 33.4258C45.4312 33.4214 45.4266 33.4153 45.4242 33.4082L45.289 33.0069C45.2872 33.0017 45.2842 32.997 45.2802 32.9931C45.2763 32.9892 45.2715 32.9863 45.2663 32.9845L44.865 32.8487C44.8579 32.8463 44.8517 32.8418 44.8472 32.8357C44.8428 32.8296 44.8405 32.8223 44.8405 32.8147C44.8405 32.8072 44.8428 32.7999 44.8472 32.7938C44.8517 32.7877 44.8579 32.7831 44.865 32.7808L45.2663 32.6453C45.2715 32.6434 45.2763 32.6404 45.2802 32.6365C45.2841 32.6325 45.2871 32.6278 45.289 32.6226L45.4242 32.2216C45.4266 32.2145 45.4312 32.2084 45.4373 32.204C45.4434 32.1996 45.4508 32.1973 45.4583 32.1973C45.4658 32.1973 45.4731 32.1996 45.4793 32.204C45.4854 32.2084 45.49 32.2145 45.4924 32.2216L45.6282 32.6226C45.6299 32.6278 45.6327 32.6326 45.6366 32.6366C45.6404 32.6405 45.6451 32.6435 45.6503 32.6453L46.0516 32.7808C46.0587 32.7831 46.0649 32.7877 46.0693 32.7938C46.0738 32.7999 46.0761 32.8072 46.0761 32.8147C46.0761 32.8223 46.0738 32.8296 46.0693 32.8357C46.0649 32.8418 46.0587 32.8463 46.0516 32.8487Z" fill="#F9F9F9"/>
<path d="M5.50183 26.6852L5.1009 26.8207C5.09572 26.8225 5.09101 26.8254 5.08712 26.8293C5.08324 26.8332 5.08029 26.8379 5.07848 26.8431L4.943 27.2443C4.94056 27.2514 4.93597 27.2576 4.92985 27.262C4.92373 27.2664 4.9164 27.2687 4.90889 27.2687C4.90137 27.2687 4.89404 27.2664 4.88793 27.262C4.88181 27.2576 4.87721 27.2514 4.87477 27.2443L4.73929 26.8431C4.73746 26.8379 4.73445 26.8331 4.73051 26.8293C4.72657 26.8254 4.7218 26.8224 4.71655 26.8207L4.31563 26.6852C4.30852 26.6828 4.30235 26.6782 4.29798 26.672C4.29361 26.6659 4.29126 26.6586 4.29126 26.6511C4.29126 26.6436 4.29361 26.6362 4.29798 26.6301C4.30235 26.624 4.30852 26.6194 4.31563 26.617L4.71655 26.4818C4.72178 26.4799 4.72654 26.4769 4.73047 26.473C4.7344 26.469 4.73741 26.4643 4.73929 26.4591L4.87347 26.0568C4.87591 26.0497 4.88051 26.0436 4.88663 26.0392C4.89274 26.0348 4.90007 26.0325 4.90759 26.0325C4.91511 26.0325 4.92243 26.0348 4.92855 26.0392C4.93467 26.0436 4.93927 26.0497 4.9417 26.0568L5.07719 26.4581C5.07903 26.4633 5.08199 26.468 5.08587 26.4719C5.08974 26.4759 5.09443 26.4789 5.0996 26.4808L5.50085 26.616C5.50836 26.6181 5.51499 26.6225 5.51975 26.6287C5.52451 26.6349 5.52714 26.6424 5.52725 26.6502C5.52736 26.658 5.52494 26.6656 5.52036 26.6719C5.51577 26.6782 5.50927 26.6829 5.50183 26.6852Z" fill="#F9F9F9"/>
<path d="M17.8173 8.34226L17.4161 8.47774C17.4109 8.47954 17.4062 8.48249 17.4023 8.48638C17.3984 8.49026 17.3955 8.49497 17.3937 8.50016L17.2582 8.90205C17.2558 8.90916 17.2512 8.91533 17.245 8.9197C17.2389 8.92407 17.2316 8.92642 17.2241 8.92642C17.2166 8.92642 17.2092 8.92407 17.2031 8.9197C17.197 8.91533 17.1924 8.90916 17.19 8.90205L17.0545 8.50081C17.0527 8.49562 17.0497 8.49091 17.0458 8.48703C17.042 8.48314 17.0372 8.48019 17.0321 8.47839L16.6308 8.34291C16.6237 8.34047 16.6175 8.33587 16.6132 8.32975C16.6088 8.32364 16.6064 8.31631 16.6064 8.30879C16.6064 8.30127 16.6088 8.29395 16.6132 8.28783C16.6175 8.28171 16.6237 8.27711 16.6308 8.27468L17.0321 8.13952C17.0372 8.1376 17.0419 8.13457 17.0458 8.13064C17.0497 8.12671 17.0526 8.12198 17.0545 8.11678L17.19 7.71553C17.1924 7.70842 17.197 7.70225 17.2031 7.69788C17.2092 7.69351 17.2166 7.69116 17.2241 7.69116C17.2316 7.69116 17.2389 7.69351 17.245 7.69788C17.2512 7.70225 17.2558 7.70842 17.2582 7.71553L17.3937 8.11678C17.3955 8.12198 17.3985 8.12671 17.4024 8.13064C17.4062 8.13457 17.4109 8.1376 17.4161 8.13952L17.8173 8.27468C17.8242 8.27725 17.8302 8.28186 17.8344 8.2879C17.8385 8.29394 17.8408 8.30111 17.8408 8.30847C17.8408 8.31582 17.8385 8.32299 17.8344 8.32903C17.8302 8.33507 17.8242 8.33969 17.8173 8.34226Z" fill="#F9F9F9"/>
<path d="M11.7087 8.05319L11.3064 8.18737C11.3012 8.18909 11.2964 8.19201 11.2925 8.1959C11.2886 8.1998 11.2857 8.20456 11.284 8.20979L11.1482 8.61104C11.1458 8.61815 11.1412 8.62432 11.1351 8.62869C11.1289 8.63306 11.1216 8.6354 11.1141 8.6354C11.1066 8.6354 11.0992 8.63306 11.0931 8.62869C11.087 8.62432 11.0824 8.61815 11.08 8.61104L10.9448 8.20979C10.9429 8.20462 10.9399 8.19993 10.9359 8.19605C10.932 8.19218 10.9273 8.18922 10.9221 8.18737L10.5208 8.05189C10.5137 8.04945 10.5075 8.04485 10.5032 8.03874C10.4988 8.03262 10.4965 8.02529 10.4965 8.01778C10.4965 8.01026 10.4988 8.00293 10.5032 7.99681C10.5075 7.9907 10.5137 7.9861 10.5208 7.98366L10.9221 7.8485C10.9273 7.84653 10.932 7.84348 10.9359 7.83956C10.9398 7.83565 10.9428 7.83094 10.9448 7.82576L11.08 7.42451C11.0824 7.4174 11.087 7.41123 11.0931 7.40686C11.0992 7.4025 11.1066 7.40015 11.1141 7.40015C11.1216 7.40015 11.1289 7.4025 11.1351 7.40686C11.1412 7.41123 11.1458 7.4174 11.1482 7.42451L11.284 7.82576C11.2858 7.83101 11.2887 7.83578 11.2926 7.83972C11.2965 7.84366 11.3012 7.84667 11.3064 7.8485L11.7074 7.98366C11.7152 7.98537 11.7223 7.98969 11.7274 7.9959C11.7325 8.00212 11.7353 8.00987 11.7355 8.01791C11.7356 8.02595 11.7331 8.03381 11.7282 8.04021C11.7233 8.04661 11.7164 8.05118 11.7087 8.05319Z" fill="#F9F9F9"/>
<path d="M29.1384 29.6404L25.1678 27.6757C25.1157 27.6507 25.0586 27.6379 25.0008 27.6382C24.943 27.6385 24.886 27.652 24.8342 27.6777L20.8636 29.642C20.5426 29.8009 20.2018 29.4601 20.3603 29.1387L22.325 25.1685C22.3508 25.1163 22.3642 25.0589 22.3642 25.0007C22.3642 24.9425 22.3508 24.8851 22.325 24.8329L20.3607 20.8626C20.3254 20.7922 20.3133 20.7125 20.3258 20.6347C20.3384 20.557 20.3752 20.4852 20.4308 20.4295C20.4865 20.3738 20.5583 20.337 20.636 20.3244C20.7137 20.3117 20.7935 20.3239 20.8639 20.359L24.8342 22.3237C24.886 22.3493 24.943 22.3628 25.0008 22.3632C25.0586 22.3635 25.1157 22.3507 25.1678 22.3256L29.14 20.3594C29.461 20.2005 29.8022 20.5413 29.6433 20.8626L27.677 24.8348C27.6521 24.8866 27.6392 24.9433 27.6392 25.0007C27.6392 25.0581 27.6521 25.1148 27.677 25.1665L29.6417 29.1371C29.6768 29.2075 29.6889 29.2872 29.6762 29.3649C29.6636 29.4425 29.6268 29.5143 29.5712 29.5699C29.5155 29.6255 29.4438 29.6623 29.3662 29.6749C29.2885 29.6876 29.2088 29.6755 29.1384 29.6404Z" fill="#6650AB"/>
<path d="M30.6634 25.3246L26.8342 26.619C26.7844 26.6365 26.7392 26.665 26.7021 26.7025C26.665 26.74 26.637 26.7854 26.6201 26.8354L25.326 30.6646C25.2211 30.9743 24.7812 30.9743 24.6762 30.6646L23.3821 26.8364C23.3652 26.7861 23.3368 26.7404 23.2993 26.7028C23.2618 26.6653 23.2161 26.637 23.1658 26.62L19.3365 25.3246C19.2683 25.3019 19.209 25.2583 19.167 25.2C19.1249 25.1417 19.1023 25.0716 19.1023 24.9997C19.1023 24.9279 19.1249 24.8578 19.167 24.7995C19.209 24.7412 19.2683 24.6976 19.3365 24.6748L23.1651 23.3811C23.2151 23.3642 23.2605 23.3361 23.298 23.299C23.3355 23.2619 23.3641 23.2168 23.3815 23.167L24.6759 19.3355C24.7805 19.0259 25.2204 19.0259 25.3257 19.3355L26.6197 23.167C26.6371 23.2164 26.6654 23.2614 26.7024 23.2984C26.7395 23.3355 26.7844 23.3637 26.8339 23.3811L30.6631 24.6752C30.7312 24.6979 30.7904 24.7415 30.8324 24.7998C30.8744 24.858 30.897 24.928 30.897 24.9998C30.897 25.0716 30.8745 25.1416 30.8326 25.1999C30.7907 25.2582 30.7315 25.3018 30.6634 25.3246Z" fill="#9172F4"/>
</g>
<defs>
<clipPath id="clip0_645_2455">
<rect width="50" height="50" fill="white"/>
</clipPath>
</defs>
</svg>
