<svg xmlns="http://www.w3.org/2000/svg" viewBox="0 0 1538.95 1538.95"><defs><style>.cls-1{fill:#6650ab;}.cls-2{fill:#9172f4;}.cls-3{fill:#3a2e62;}.cls-4{fill:#f9f9f9;}</style></defs><title>Logo</title><g id="Calque_2" data-name="Calque 2"><g id="Logos"><path class="cls-1" d="M290.16,769.47,115.5,576.55Q57.77,673,0,769.47q23.92-133.8,47.84-267.64Q94.21,413.9,140.61,326h0l45.48,134.9,13.81,41Z"/><path class="cls-1" d="M996.25,34Q921.47,164.31,846.69,294.62l-193-92.89Q534.17,144.15,414.6,86.61a0,0,0,0,1,0,0L769.47,0Z"/><path class="cls-2" d="M996.27,34,962.36,301.44l-115.67-6.82Q921.46,164.28,996.25,34Z"/><path class="cls-2" d="M769.49,1539,414.58,1452.4h0Q285.92,1344,157.24,1235.68q128.7-7.14,257.34-14.23,80.73-4.52,161.53-8.94c6.93,11.78,13.94,23.55,20.92,35.28Q683.25,1393.4,769.49,1539Z"/><polygon class="cls-2" points="1399.17 327.17 1337.55 504.42 1171.62 507.23 1148.28 312.39 1126.26 128.57 1399.17 327.17"/><path class="cls-3" d="M1398.69,1212.51q-139,120.83-277.91,241.64l-.14.14q8.88-120.88,17.79-241.78Z"/><path class="cls-2" d="M1497.08,1020.36v0s0,0,0,.05v0q-49.21,96-98.37,192l-19.47-56.26L1245.39,769.47Z"/><path class="cls-2" d="M1497.11,1020.39l0,.05s0,0,0-.05Z"/><path class="cls-1" d="M924,1523.83,769.49,1539Q683.26,1393.35,597,1247.79c-7-11.73-14-23.5-20.92-35.28L742.4,1251.8h0v0L846.1,1407.15Z"/><path class="cls-1" d="M1398.69,1212.51H959.24l192.22-177.09q47-133,93.93-266l133.83,386.78Z"/><path class="cls-3" d="M576.11,1212.51q-80.79,4.46-161.53,8.94-128.68,7.08-257.34,14.23,128.7-68.82,257.3-137.68h0v0Z"/><path class="cls-2" d="M290.16,769.47,41.84,1020.39,0,769.47Q57.74,673,115.5,576.55Z"/><path class="cls-3" d="M582.42,326l-212,175.87q-40.14,133.84-80.29,267.64L199.92,501.83l-13.81-41,41.65-68.23L268.45,326Z"/><path class="cls-3" d="M1361.62,642.88,1245.39,769.47l-73.77-262.24,132.13,94.33v0Z"/><polygon class="cls-1" points="1538.95 769.47 1497.08 1020.36 1245.39 769.47 1361.62 642.88 1303.75 601.59 1303.75 601.56 1171.62 507.23 1337.55 504.42 1399.17 327.17 1491.11 501.83 1538.95 769.47"/><path class="cls-2" d="M846.69,294.62,582.42,326h-314l-40.69,66.67-41.65,68.23L140.63,326,414.56,86.59h0a0,0,0,0,0,0,0q119.55,57.57,239.12,115.12Z"/><path class="cls-3" d="M290.16,769.47q-36.28,127.31-72.59,254.6l-8.85,31.08L41.84,1020.39Z"/><path class="cls-3" d="M890.35,1331l-44.25,76.13L742.43,1251.83v0Q816.41,1291.38,890.35,1331Z"/><path class="cls-4" d="M451.09,219.78l-24.69,8.35a2.16,2.16,0,0,0-1.38,1.38l-8.35,24.69a2.21,2.21,0,0,1-4.2,0l-8.33-24.69a2.24,2.24,0,0,0-1.39-1.38l-24.7-8.35a2.21,2.21,0,0,1,0-4.19l24.7-8.33a2.32,2.32,0,0,0,1.39-1.4l8.33-24.69a2.22,2.22,0,0,1,4.2,0L425,205.86a2.23,2.23,0,0,0,1.38,1.4l24.69,8.33A2.2,2.2,0,0,1,451.09,219.78Z"/><path class="cls-4" d="M1341.16,358l-24.69,8.35a2.16,2.16,0,0,0-1.38,1.38l-8.35,24.7a2.21,2.21,0,0,1-4.2,0l-8.33-24.7a2.24,2.24,0,0,0-1.39-1.38l-24.7-8.35a2.21,2.21,0,0,1,0-4.19l24.7-8.33a2.32,2.32,0,0,0,1.39-1.4l8.33-24.69a2.22,2.22,0,0,1,4.2,0l8.35,24.69a2.23,2.23,0,0,0,1.38,1.4l24.69,8.33A2.21,2.21,0,0,1,1341.16,358Z"/><path class="cls-4" d="M567.13,1409.23l-24.7,8.35a2.16,2.16,0,0,0-1.37,1.38l-8.35,24.69a2.21,2.21,0,0,1-4.2,0L520.18,1419a2.23,2.23,0,0,0-1.4-1.38l-24.69-8.35a2.21,2.21,0,0,1,0-4.19l24.69-8.33a2.31,2.31,0,0,0,1.4-1.4l8.33-24.69a2.22,2.22,0,0,1,4.2,0l8.35,24.69a2.24,2.24,0,0,0,1.37,1.4l24.7,8.33A2.21,2.21,0,0,1,567.13,1409.23Z"/><path class="cls-4" d="M481.62,1322.66l-12.34,4.18a1,1,0,0,0-.69.69l-4.18,12.34a1.1,1.1,0,0,1-2.1,0l-4.16-12.34a1.09,1.09,0,0,0-.7-.69l-12.35-4.18a1.1,1.1,0,0,1,0-2.09l12.35-4.17a1.13,1.13,0,0,0,.7-.7l4.16-12.34a1.11,1.11,0,0,1,2.1,0l4.18,12.34a1.07,1.07,0,0,0,.69.7l12.34,4.17A1.1,1.1,0,0,1,481.62,1322.66Z"/><path class="cls-4" d="M1296.94,461.9l-12.35,4.18a1.08,1.08,0,0,0-.69.69l-4.17,12.34a1.1,1.1,0,0,1-2.1,0l-4.16-12.34a1.12,1.12,0,0,0-.7-.69l-12.35-4.18a1.1,1.1,0,0,1,0-2.09l12.35-4.17a1.16,1.16,0,0,0,.7-.7l4.16-12.35a1.11,1.11,0,0,1,2.1,0l4.17,12.35a1.12,1.12,0,0,0,.69.7l12.35,4.17A1.1,1.1,0,0,1,1296.94,461.9Z"/><path class="cls-4" d="M144.32,728.73,132,732.9a1.06,1.06,0,0,0-.68.69l-4.18,12.35a1.11,1.11,0,0,1-2.1,0l-4.16-12.35a1.14,1.14,0,0,0-.7-.69l-12.35-4.17a1.11,1.11,0,0,1,0-2.1l12.35-4.17a1.16,1.16,0,0,0,.7-.7L125,709.42a1.11,1.11,0,0,1,2.1,0l4.18,12.34a1.08,1.08,0,0,0,.68.7l12.35,4.17A1.11,1.11,0,0,1,144.32,728.73Z"/><path class="cls-4" d="M1417.42,1011.05l-12.35,4.18a1,1,0,0,0-.68.69l-4.18,12.35a1.11,1.11,0,0,1-2.1,0l-4.16-12.35a1.12,1.12,0,0,0-.7-.69l-12.35-4.18a1.1,1.1,0,0,1,0-2.09l12.35-4.17a1.16,1.16,0,0,0,.7-.7l4.16-12.34a1.11,1.11,0,0,1,2.1,0l4.18,12.34a1.08,1.08,0,0,0,.68.7l12.35,4.17A1.1,1.1,0,0,1,1417.42,1011.05Z"/><path class="cls-4" d="M169.34,821.34,157,825.51a1.12,1.12,0,0,0-.69.69l-4.17,12.35a1.11,1.11,0,0,1-2.1,0l-4.17-12.35a1.12,1.12,0,0,0-.7-.69l-12.34-4.17a1.11,1.11,0,0,1,0-2.1l12.34-4.16a1.16,1.16,0,0,0,.7-.7L150,802a1.11,1.11,0,0,1,2.1,0l4.17,12.35a1.16,1.16,0,0,0,.69.7l12.35,4.16A1.11,1.11,0,0,1,169.34,821.34Z"/><path class="cls-4" d="M548.4,256.77l-12.35,4.17a1.12,1.12,0,0,0-.69.69L531.19,274a1.11,1.11,0,0,1-2.1,0l-4.17-12.35a1.12,1.12,0,0,0-.69-.69l-12.35-4.17a1.11,1.11,0,0,1,0-2.1l12.35-4.16a1.16,1.16,0,0,0,.69-.7l4.17-12.35a1.11,1.11,0,0,1,2.1,0l4.17,12.35a1.16,1.16,0,0,0,.69.7l12.35,4.16A1.11,1.11,0,0,1,548.4,256.77Z"/><path class="cls-4" d="M360.38,247.87,348,252a1.08,1.08,0,0,0-.69.69l-4.18,12.35a1.11,1.11,0,0,1-2.1,0l-4.16-12.35a1.16,1.16,0,0,0-.7-.69l-12.35-4.17a1.11,1.11,0,0,1,0-2.1l12.35-4.16a1.21,1.21,0,0,0,.7-.7l4.16-12.35a1.11,1.11,0,0,1,2.1,0l4.18,12.35a1.12,1.12,0,0,0,.69.7l12.34,4.16A1.1,1.1,0,0,1,360.38,247.87Z"/><path class="cls-1" d="M896.85,912.3,774.64,851.83a11.72,11.72,0,0,0-10.27.06L642.16,912.35c-9.88,4.89-20.37-5.6-15.49-15.49l60.47-122.2a11.65,11.65,0,0,0,0-10.33l-60.46-122.2a11.55,11.55,0,0,1,15.49-15.5l122.2,60.47a11.72,11.72,0,0,0,10.27.06L896.9,626.64c9.88-4.89,20.38,5.6,15.49,15.49L851.87,764.39a11.79,11.79,0,0,0,0,10.21l60.47,122.21A11.55,11.55,0,0,1,896.85,912.3Z"/><path class="cls-2" d="M943.79,779.47,825.93,819.31a10.68,10.68,0,0,0-6.59,6.66L779.51,943.83c-3.23,9.53-16.77,9.53-20,0L719.68,826a10.6,10.6,0,0,0-6.66-6.66L595.16,779.47a10.54,10.54,0,0,1,0-20L713,719.65a10.68,10.68,0,0,0,6.66-6.59l39.84-117.93c3.22-9.53,16.76-9.53,20,0l39.83,117.93a10.77,10.77,0,0,0,6.59,6.59l117.86,39.83A10.54,10.54,0,0,1,943.79,779.47Z"/></g></g></svg>