<svg width="78" height="75" viewBox="0 0 78 75" fill="none" xmlns="http://www.w3.org/2000/svg">
<path d="M44.1469 0.0398021C42.8637 0.107707 41.4387 0.252003 41.1971 0.345372C41.0471 0.404788 40.9554 0.650941 41.0221 0.812214C41.0554 0.880119 41.3804 1.16022 41.7471 1.44033C42.122 1.72044 43.347 2.86632 44.4719 3.97826C46.8801 6.35491 47.5884 7 47.8217 7C47.9301 7 48.4634 6.53316 49.255 5.74377C49.955 5.05624 51.1799 3.91035 51.9965 3.19736C53.4548 1.91566 53.9714 1.3215 53.9964 0.897095C54.0131 0.515133 53.9714 0.252003 53.8714 0.150147C53.7464 0.0313144 46.1468 -0.0535665 44.1469 0.0398021Z" fill="#7056A6"/>
<path d="M22.4577 1.09535C19.6477 1.30997 19.4748 1.4686 20.7976 2.60699C21.2299 2.98024 22.7776 4.51987 24.2301 6.02218C25.6826 7.52449 26.9536 8.81218 27.066 8.89616C27.2475 9.03613 27.2908 9.03613 27.5674 8.88683C28.3888 8.46693 30.0488 6.88064 31.6829 4.9491C33.7839 2.4577 34.2854 1.5899 33.8617 1.14201C33.7407 1.01137 33.1614 0.992712 28.6136 1.00204C25.795 1.01137 23.0283 1.05803 22.4577 1.09535Z" fill="#7056A6"/>
<path d="M55.9991 4.27264C53.1089 7.45068 51.7154 9.04905 51.1993 9.78748C51.0273 10.0398 50.9757 10.2081 51.0101 10.3577C51.0875 10.7222 57.3324 17.3306 59.8786 19.7516C61.2205 21.0228 62.0893 21.6771 62.6484 21.8266C62.872 21.8921 63.8957 21.9575 64.9107 21.9855C66.4676 22.0229 67.0525 21.9949 68.6525 21.8173C70.218 21.6303 71.0094 21.593 73.2115 21.593C74.8888 21.593 75.9039 21.5556 75.9383 21.4995C76.0845 21.2845 75.9813 21.0228 75.5168 20.3872C72.962 16.9287 68.9106 11.9467 64.1795 6.45053C60.3689 2.01063 59.4743 1.02917 59.2334 1.00113C59.0442 0.973091 58.5797 1.44979 55.9991 4.27264Z" fill="#7056A6"/>
<path d="M36.5109 1.36048C36.2779 1.59119 35.1552 2.69668 34.0325 3.81179C32.8993 4.92689 31.586 6.13812 31.0988 6.51303C30.6222 6.87832 29.6266 7.71465 28.8852 8.35871C27.5401 9.53149 27 10.214 27 10.7427C27 11.0792 27.6461 11.656 28.8852 12.425C29.5101 12.8095 30.5375 13.5497 31.1729 14.088C36.9451 18.9041 38.3008 20 38.4808 20C38.7456 20 48.7119 10.8004 48.9449 10.3294C49.0085 10.2044 49.019 10.0602 48.9661 9.9833C48.9131 9.89679 48.373 9.47382 47.7587 9.03162C47.155 8.58942 45.3863 7.09942 43.84 5.72476C41.0333 3.21578 39.9212 2.36984 38.3643 1.5239C37.1569 0.860609 37.0404 0.850996 36.5109 1.36048Z" fill="#7056A6"/>
<path d="M15.405 1.31295C15.2608 1.48365 14.572 2.43199 13.859 3.41827C12.4813 5.3434 10.7751 7.59097 6.85811 12.6646C1.49926 19.6064 1.20289 20.0237 1.02666 20.9626C0.954568 21.3798 1.03467 21.9109 1.19488 21.9868C1.25095 22.0057 4.31887 22.0057 8.01959 21.9773L14.7402 21.9299L15.2688 21.2566C15.5492 20.8867 17.1593 18.9426 18.8334 16.9321C22.2297 12.8637 24 10.5119 24 10.0661C24 9.7437 16.0298 1 15.7334 1C15.6934 1 15.5412 1.14225 15.405 1.31295Z" fill="#7056A6"/>
<path d="M46.9555 14.9921C45.8991 16.0868 44.4127 17.5494 43.6368 18.2404C42.8702 18.9403 42.0568 19.6761 41.8418 19.8825C41.1313 20.5734 40.7948 21.4887 41.1313 21.8476C41.2996 22.0181 41.365 22.0271 48.9655 21.9643C58.3608 21.8925 59.1648 21.8207 58.9779 21.1477C58.9498 21.04 58.7815 20.8516 58.6039 20.7439C57.9028 20.3132 56.4537 19.0569 54.5373 17.2174C53.4248 16.1496 52.1627 14.9921 51.7233 14.6421C50.6202 13.7627 49.4142 13 49.115 13C48.9094 13 48.5167 13.3679 46.9555 14.9921Z" fill="#7056A6"/>
<path d="M26.4886 13.7071C26.1313 14.102 25.6084 14.7082 25.3208 15.0663C24.4232 16.1776 23.5344 17.1602 22.8023 17.8765C22.4102 18.2531 21.713 18.9235 21.2512 19.3643C20.7893 19.8143 20.3361 20.3378 20.2403 20.5306C20.0137 20.999 19.9353 21.5592 20.0573 21.8071L20.1618 22H25.8437C28.9722 22 32.5016 21.9724 33.6867 21.9357C36.4144 21.8622 36.3882 21.8806 35.3512 20.5122C34.4972 19.401 33.0942 17.8306 32.0223 16.8204C30.1312 15.0388 27.6127 13 27.2903 13C27.2032 13 26.8371 13.3214 26.4886 13.7071Z" fill="#7056A6"/>
<path d="M62.6516 25.0825C55.132 25.1297 53.9706 25.1581 53.8587 25.281C53.7124 25.4323 53.179 27.4458 51.3206 34.772C48.1803 47.1841 45.7541 57.8378 44.3173 65.5233C43.8957 67.7826 43.8957 68 44.3087 68C44.4721 68 44.7733 67.6313 45.8745 66.081C52.8435 56.2497 60.9309 45.0665 67.8826 35.6701C72.6921 29.1663 73.4406 28.1737 74.0773 27.493C74.4128 27.1244 74.7655 26.6612 74.8516 26.4626C75.0495 25.9805 75.0495 25.4133 74.8516 25.177C74.7053 24.9974 74.5935 24.9879 73.0104 25.0069C72.0812 25.0163 67.4266 25.0447 62.6516 25.0825Z" fill="#7056A6"/>
<path d="M8.70459 25.0743C5.12526 25.1025 2.18057 25.1307 2.17211 25.1495C2.16365 25.1589 2.11288 25.2622 2.05364 25.3656C1.93518 25.6192 1.72363 25.2904 5.01526 29.819C9.0346 35.3435 10.6508 37.5326 15.5586 44.0999C20.7288 51.0149 23.6988 55.0174 27.4474 60.1097C31.179 65.1832 32.1521 66.2542 32.7445 65.9536C32.8629 65.8972 32.9729 65.7939 32.9983 65.7187C33.0237 65.6435 32.7614 64.4879 32.406 63.1538C31.6529 60.2882 30.5529 55.863 27.8282 44.8046C24.1812 29.9975 22.9965 25.2716 22.8611 25.1025C22.768 24.971 22.3111 24.971 8.70459 25.0743Z" fill="#7056A6"/>
<path d="M34.0038 25.057C24.6493 25.1045 24.2487 25.114 24.1185 25.2851C23.768 25.7316 23.818 25.9122 29.7973 46.2364C35.2257 64.6602 36.708 69.5631 37.6795 72.2711C38.5108 74.5705 38.8413 75.1216 39.292 74.9791C39.5424 74.903 39.4222 75.3021 41.255 68.5654C43.0278 62.0377 49.6681 37.8083 51.6612 30.606C52.8931 26.1402 53.0834 25.3516 52.9732 25.19C52.853 25 52.7428 25 48.306 25C45.8021 25 39.3721 25.0285 34.0038 25.057Z" fill="#7056A6"/>
</svg>
