<svg width="147" height="138" viewBox="0 0 147 138" fill="none" xmlns="http://www.w3.org/2000/svg">
<g filter="url(#filter0_d_318_751)">
<path d="M77.2939 8.06823C74.7273 8.18464 71.8775 8.43201 71.3942 8.59207C71.0942 8.69392 70.9109 9.1159 71.0442 9.39237C71.1108 9.50877 71.7608 9.98896 72.4941 10.4691C73.2441 10.9493 75.6939 12.9137 77.9438 14.8199C82.7603 18.8941 84.1768 20 84.6435 20C84.8601 20 85.9268 19.1997 87.51 17.8465C88.9099 16.6678 91.3598 14.7035 92.9931 13.4812C95.9096 11.284 96.9429 10.2654 96.9929 9.53788C97.0262 8.88308 96.9429 8.43201 96.7429 8.25739C96.4929 8.05368 81.2937 7.90817 77.2939 8.06823Z" fill="#7056A6"/>
<path d="M39.5642 9.14303C34.3457 9.46495 34.0246 9.7029 36.4813 11.4105C37.2841 11.9704 40.1583 14.2798 42.8559 16.5333C45.5534 18.7867 47.9138 20.7183 48.1225 20.8442C48.4597 21.0542 48.54 21.0542 49.0538 20.8302C50.5792 20.2004 53.6621 17.821 56.6969 14.9237C60.5987 11.1865 61.53 9.88485 60.7432 9.21301C60.5184 9.01706 59.4426 8.98907 50.9967 9.00307C45.7622 9.01706 40.624 9.08704 39.5642 9.14303Z" fill="#7056A6"/>
<path d="M95.7985 15.1427C90.7117 20.1368 88.2591 22.6485 87.3508 23.8089C87.048 24.2055 86.9572 24.4699 87.0177 24.7049C87.154 25.2777 98.1451 35.6624 102.626 39.4667C104.988 41.4644 106.517 42.4926 107.501 42.7276C107.895 42.8304 109.696 42.9332 111.483 42.9773C114.223 43.036 115.252 42.992 118.068 42.7129C120.824 42.4191 122.217 42.3604 126.092 42.3604C129.044 42.3604 130.831 42.3016 130.891 42.2135C131.149 41.8756 130.967 41.4644 130.15 40.4656C125.653 35.0308 118.523 27.2019 110.196 18.5651C103.489 11.5881 101.915 10.0458 101.491 10.0018C101.158 9.95771 100.34 10.7068 95.7985 15.1427Z" fill="#7056A6"/>
<path d="M64.834 10.5692C64.4951 10.9335 62.8621 12.679 61.2291 14.4397C59.5808 16.2004 57.6705 18.1128 56.9619 18.7048C56.2686 19.2816 54.8205 20.6021 53.7422 21.619C51.7857 23.4708 51 24.5484 51 25.3833C51 25.9145 51.9397 26.8252 53.7422 28.0395C54.6511 28.6466 56.1454 29.8153 57.0697 30.6653C65.4656 38.2697 67.4375 40 67.6994 40C68.0845 40 82.581 25.4743 82.9199 24.7306C83.0123 24.5333 83.0277 24.3056 82.9507 24.1842C82.8737 24.0476 82.088 23.3797 81.1945 22.6815C80.3164 21.9833 77.7437 19.6307 75.4945 17.4602C71.4121 13.4986 69.7945 12.1629 67.5299 10.8272C65.7737 9.77991 65.6043 9.76473 64.834 10.5692Z" fill="#7056A6"/>
<path d="M30.9311 11.4769C30.6616 11.737 29.3737 13.1821 28.0408 14.685C25.465 17.6185 22.2752 21.0434 14.9521 28.7746C4.93341 39.3527 4.37931 39.9885 4.04984 41.4192C3.91506 42.055 4.06482 42.8642 4.36433 42.9799C4.46916 43.0088 10.2048 43.0088 17.1236 42.9654L29.6882 42.8932L30.6765 41.8671C31.2007 41.3036 34.2108 38.3411 37.3407 35.2775C43.6904 29.0781 47 25.4943 47 24.8151C47 24.3237 32.0992 11 31.5451 11C31.4703 11 31.1857 11.2168 30.9311 11.4769Z" fill="#7056A6"/>
<path d="M80.9259 31.3201C79.1652 33.1447 76.6878 35.5824 75.3946 36.7339C74.1169 37.9005 72.7614 39.1268 72.403 39.4708C71.2189 40.6223 70.6579 42.1478 71.2189 42.746C71.4993 43.0302 71.6084 43.0451 84.2758 42.9404C99.9347 42.8208 101.275 42.7011 100.963 41.5795C100.916 41.4 100.636 41.086 100.34 40.9065C99.1713 40.1886 96.7562 38.0949 93.5621 35.029C91.7079 33.2493 89.6045 31.3201 88.8722 30.7368C87.0336 29.2712 85.0237 28 84.5251 28C84.1823 28 83.5279 28.6132 80.9259 31.3201Z" fill="#7056A6"/>
<path d="M46.7605 29.1786C46.1129 29.8367 45.1652 30.8469 44.644 31.4439C43.0171 33.2959 41.406 34.9337 40.0792 36.1276C39.3685 36.7551 38.1049 37.8724 37.2677 38.6071C36.4306 39.3571 35.6092 40.2296 35.4355 40.551C35.0248 41.3316 34.8827 42.2653 35.1038 42.6786L35.2933 43H45.5917C51.2621 43 57.6591 42.9541 59.8072 42.8929C64.7511 42.7704 64.7037 42.801 62.8241 40.5204C61.2762 38.6684 58.7332 36.051 56.7904 34.3673C53.3628 31.398 48.7981 28 48.2137 28C48.0557 28 47.3923 28.5357 46.7605 29.1786Z" fill="#7056A6"/>
<path d="M107.49 48.1285C94.3913 48.2022 92.3681 48.2464 92.1732 48.4378C91.9184 48.6735 90.9893 51.8109 87.7521 63.2262C82.2818 82.5659 78.0555 99.1659 75.5527 111.141C74.8183 114.661 74.8183 115 75.5377 115C75.8224 115 76.347 114.426 78.2653 112.01C90.4048 96.6914 104.493 79.2665 116.602 64.6254C124.98 54.4916 126.284 52.945 127.393 51.8845C127.977 51.3101 128.592 50.5883 128.741 50.279C129.086 49.5278 129.086 48.644 128.741 48.2758C128.487 47.9959 128.292 47.9812 125.534 48.0107C123.916 48.0254 115.808 48.0696 107.49 48.1285Z" fill="#7056A6"/>
<path d="M60.1782 48.0889C45.9852 48.163 45.3773 48.1779 45.1798 48.4447C44.6479 49.1413 44.7239 49.423 53.7959 81.1287C62.0321 109.87 64.2811 117.518 65.7551 121.743C67.0164 125.33 67.5178 126.19 68.2017 125.967C68.5816 125.849 68.3992 126.471 71.1801 115.962C73.8697 105.779 83.9447 67.981 86.9686 56.7454C88.8377 49.7787 89.1265 48.5484 88.9593 48.2965C88.777 48 88.6098 48 81.878 48C78.079 48 68.3232 48.0445 60.1782 48.0889Z" fill="#7056A6"/>
<path d="M16.8952 48.1178C10.5448 48.1625 5.32037 48.2072 5.30535 48.237C5.29034 48.2519 5.20026 48.4157 5.09517 48.5796C4.88499 48.9817 4.50967 48.4604 10.3497 55.6398C17.4807 64.3982 20.3482 67.8687 29.0556 78.2804C38.2284 89.2432 43.4979 95.5885 50.1486 103.662C56.7692 111.705 58.4957 113.403 59.5466 112.926C59.7568 112.837 59.952 112.673 59.997 112.554C60.042 112.435 59.5766 110.603 58.9461 108.488C57.61 103.945 55.6583 96.9291 50.8242 79.3975C44.3537 55.9228 42.2519 48.4306 42.0117 48.1625C41.8465 47.954 41.0358 47.954 16.8952 48.1178Z" fill="#7056A6"/>
</g>
<defs>
<filter id="filter0_d_318_751" x="0" y="0" width="147" height="138" filterUnits="userSpaceOnUse" color-interpolation-filters="sRGB">
<feFlood flood-opacity="0" result="BackgroundImageFix"/>
<feColorMatrix in="SourceAlpha" type="matrix" values="0 0 0 0 0 0 0 0 0 0 0 0 0 0 0 0 0 0 127 0" result="hardAlpha"/>
<feOffset dx="6" dy="2"/>
<feGaussianBlur stdDeviation="5"/>
<feComposite in2="hardAlpha" operator="out"/>
<feColorMatrix type="matrix" values="0 0 0 0 0 0 0 0 0 0 0 0 0 0 0 0 0 0 0.5 0"/>
<feBlend mode="normal" in2="BackgroundImageFix" result="effect1_dropShadow_318_751"/>
<feBlend mode="normal" in="SourceGraphic" in2="effect1_dropShadow_318_751" result="shape"/>
</filter>
</defs>
</svg>
