<svg width="52" height="52" viewBox="0 0 52 52" fill="none" xmlns="http://www.w3.org/2000/svg">
<path d="M18.417 14.3828H32.5003V18.8083H18.417V14.3828Z" fill="#7056A6"/>
<path d="M15.167 7.74463H36.8337V11.0638H15.167V7.74463Z" fill="#7056A6"/>
<path d="M15.167 0H36.8337V3.31915H15.167V0Z" fill="#7056A6"/>
<path d="M5.03471 48.2857L15.4923 29.7217L29.2983 41.7746C29.7156 42.1459 30.2114 42.4184 30.7486 42.5716C31.2858 42.7249 31.8507 42.7549 32.4011 42.6596C32.9516 42.5643 33.4734 42.3461 33.9278 42.0211C34.3823 41.6962 34.7575 41.2729 35.0257 40.7829L47.97 21.463L44.8853 19.3941L31.8853 38.7976L31.7553 38.9889L17.9474 26.936C17.5302 26.5667 17.0354 26.2959 16.4995 26.1436C15.9636 25.9912 15.4003 25.9611 14.8512 26.0556C14.3022 26.1501 13.7813 26.3667 13.3272 26.6894C12.8731 27.0122 12.4972 27.4328 12.2274 27.9203L3.71429 43.0541V0H0V48.2857C0.000983314 49.2705 0.392624 50.2147 1.08898 50.911C1.78533 51.6074 2.7295 51.999 3.71429 52H52V48.2857H5.03471Z" fill="#7056A6"/>
</svg>
