<svg width="52" height="52" viewBox="0 0 52 52" fill="none" xmlns="http://www.w3.org/2000/svg">
<path d="M50.9134 12.9666C50.3154 10.618 48.5533 8.76833 46.3162 8.14062C42.2609 7 26 7 26 7C26 7 9.73922 7 5.68393 8.14062C3.44668 8.76843 1.68463 10.618 1.08659 12.9666C0 17.2235 0 26.1052 0 26.1052C0 26.1052 0 34.987 1.08659 39.2439C1.68463 41.5924 3.44668 43.3649 5.68393 43.9927C9.73922 45.1333 26 45.1333 26 45.1333C26 45.1333 42.2609 45.1333 46.3162 43.9927C48.5533 43.3649 50.3154 41.5924 50.9134 39.2439C52 34.987 52 26.1052 52 26.1052C52 26.1052 52 17.2235 50.9134 12.9666ZM20.6818 34.169V18.0413L34.2727 26.1054L20.6818 34.169Z" fill="#7056A6"/>
</svg>
