<svg width="1442" height="791" viewBox="0 0 1442 791" fill="none" xmlns="http://www.w3.org/2000/svg">
<path d="M1363.66 116.716C1330.93 33.718 1400.91 4.32282 1440 0V411H0V3.99029C59.4761 7.58155 79.0021 53.0376 81.3306 75.3167C104.283 54.3677 118.254 61.8495 132.724 75.3167C190.603 21.0488 231.351 60.0206 244.491 86.2901C259.46 80.1384 297.281 71.526 328.815 86.2901C368.233 104.745 366.736 143.152 371.726 157.617C411.143 157.617 410.645 179.064 417.63 184.052C428.607 179.064 445.073 179.064 455.052 179.064C472.615 127.989 512.266 114.887 529.896 114.721C528.066 100.755 533.389 70.6282 569.314 61.8495C614.22 50.8762 633.68 82.2998 640.665 96.2658C679.784 81.5017 705.197 121.371 713.015 143.152C769.896 141.157 771.892 175.074 777.879 189.04C804.324 140.159 861.705 153.626 877.672 157.617C861.306 114.521 898.129 103.083 918.586 102.75C917.921 90.4466 920.881 63.8447 938.046 55.8641C988.94 29.4284 1014.39 63.8447 1023.37 73.8204C1070.27 75.8155 1071.27 91.2779 1083.74 96.2658C1181.54 68.3337 1191.52 148.14 1199.5 163.602C1256.38 131.181 1284.32 169.587 1298.3 179.064C1295.8 124.198 1341.21 116.716 1363.66 116.716Z" fill="#29002B"/>
<path d="M759.138 221.722C818.553 199.465 856.003 239.939 867.301 262.957V412H0V111.432C4.78511 108.252 22.2641 112.757 30.4054 115.406C30.7377 101.827 43.3651 72.2835 91.2162 62.7448C151.03 50.8215 172.962 103.483 181.435 115.406C257.698 90.5659 263.679 160.616 266.67 168.068C291.593 169.061 303.555 186.45 307.543 197.875C397.264 166.079 418.199 253.519 421.189 267.429C443.62 259.48 460.567 267.429 473.526 275.378C480.704 228.877 525.033 220.232 546.3 221.722C546.3 203.341 554.774 168.648 597.64 152.667C649.878 133.192 685.866 174.691 697.33 197.875C744.683 178.997 759.138 207.315 759.138 221.722Z" fill="#7056A6"/>
<path d="M1222.92 252.5C1222.92 172.9 1164.9 175 1135.89 186V411H1440V109.5C1386.98 115 1379.98 160.5 1378.48 168C1354.97 168 1346.47 189.5 1344.97 196C1263.44 196 1256.44 261 1256.44 266.5C1253.44 261 1230.43 252.5 1222.92 252.5Z" fill="#7056A6"/>
<path d="M462.003 412.998C461.836 397.706 469.803 366.637 503.002 364.705C502.002 335.247 536.002 252.183 619.502 310.618C646.627 304.068 653.705 307.285 654.018 310.103C654.84 286.253 666.804 238.037 708.502 231.9C750.502 225.719 770.668 260.232 775.502 278.261C788.502 272.466 818.602 266.768 835.001 290.335C846.001 278.261 868.001 245.423 917.001 249.286C913.001 231.9 915.501 162.359 991.501 181.676C999.501 167.671 1028.5 109.233 1099.5 137.729C1146 156.392 1146 200.25 1146 222.241C1163.17 220.31 1198.4 228.81 1202 278.261C1211.5 278.261 1231.8 283.477 1237 304.339C1252 298.061 1298 258.461 1355.5 321.242C1380.5 348.537 1380.5 406.076 1380.5 412.998H462.003Z" fill="#9172F4"/>
<path d="M128.012 157.069C65.6932 128.041 16.7045 184.968 0 217.06V413H507.584C509.072 407.033 507.385 390.358 488.729 371.393C465.409 347.687 458.959 354.46 445.066 354.46C445.066 299.887 396.111 283.341 371.633 281.89C373.121 265.602 366.969 231.671 330.451 226.253C284.803 219.48 273.391 246.089 264.956 253.829C247.59 248.508 234.193 251.41 221.293 259.151C202.934 231.575 184.08 234.961 174.156 233.026C174.156 191.419 150.836 166.745 128.012 157.069Z" fill="#9172F4"/>
<path d="M541.083 364.285C476.472 333.075 455.191 385.091 452.627 415C695.882 414.675 1194.36 415 1228.2 415C1228.2 369.161 1182.39 370.136 1168.93 375.988C1161.24 354.141 1133.68 349.33 1120.86 349.655C1126.31 330.8 1124.51 288.212 1073.74 268.706C1010.29 244.324 979.52 294.064 966.059 316.495C926.638 316.495 910.293 331.125 897.794 349.655C850.681 279.434 801.645 331.125 792.03 344.779C763.186 315.52 742.033 328.199 736.264 331.125C731.457 317.471 712.227 273.582 654.538 273.582C596.849 273.582 578.581 337.952 578.581 349.655C559.352 349.655 549.737 356.482 541.083 364.285Z" fill="#A082DA"/>
<path d="M1381.01 299.016C1371.33 237.491 1417.64 227.136 1442 229.649V415H1252.5C1257.82 354.681 1308.89 358.833 1323.89 362.352C1323.89 313.594 1354.87 303.54 1381.01 299.016Z" fill="#A082DA"/>
<path d="M69.1856 275.869C66.847 230.37 22.0874 217.665 0 217V415.5C138.696 415.833 419.5 415 434.5 415C427.679 337.174 358.596 356.688 347.877 362.675C266.024 244.938 203.659 346.711 197.812 358.684C175.4 330.746 151.039 339.726 146.167 340.724C146.167 262.898 76.0068 275.869 69.1856 275.869Z" fill="#A082DA"/>
<path d="M759.138 600.278C818.553 622.535 856.003 582.061 867.301 559.043V410H0V710.568C4.78511 713.748 22.2641 709.243 30.4054 706.594C30.7377 720.173 43.3651 749.716 91.2162 759.255C151.03 771.179 172.962 718.517 181.435 706.594C257.698 731.434 263.679 661.384 266.67 653.932C291.593 652.939 303.555 635.55 307.543 624.125C397.264 655.921 418.199 568.481 421.189 554.571C443.62 562.52 460.567 554.571 473.526 546.622C480.704 593.123 525.033 601.768 546.3 600.278C546.3 618.659 554.774 653.352 597.64 669.333C649.878 688.808 685.866 647.309 697.33 624.125C744.683 643.003 759.138 614.685 759.138 600.278Z" fill="#7056A6"/>
<path d="M1222.92 569.5C1222.92 649.1 1164.9 647 1135.89 636V411H1440V712.5C1386.98 707 1379.98 661.5 1378.48 654C1354.97 654 1346.47 632.5 1344.97 626C1263.44 626 1256.44 561 1256.44 555.5C1253.44 561 1230.43 569.5 1222.92 569.5Z" fill="#7056A6"/>
<path d="M462.003 410.002C461.836 425.294 469.803 456.363 503.002 458.295C502.002 487.753 536.002 570.817 619.502 512.382C646.627 518.932 653.705 515.715 654.018 512.897C654.84 536.747 666.804 584.963 708.502 591.1C750.502 597.281 770.668 562.768 775.502 544.739C788.502 550.534 818.602 556.232 835.001 532.665C846.001 544.739 868.001 577.577 917.001 573.714C913.001 591.1 915.501 660.641 991.501 641.324C999.501 655.329 1028.5 713.767 1099.5 685.271C1146 666.608 1146 622.75 1146 600.759C1163.17 602.69 1198.4 594.19 1202 544.739C1211.5 544.739 1231.8 539.523 1237 518.661C1252 524.939 1298 564.539 1355.5 501.758C1380.5 474.463 1380.5 416.924 1380.5 410.002H462.003Z" fill="#9172F4"/>
<path d="M128.012 665.931C65.6932 694.959 16.7045 638.032 0 605.94V410H507.584C509.072 415.967 507.385 432.642 488.729 451.607C465.409 475.313 458.959 468.54 445.066 468.54C445.066 523.113 396.111 539.659 371.633 541.11C373.121 557.398 366.969 591.329 330.451 596.747C284.803 603.52 273.391 576.911 264.956 569.171C247.59 574.492 234.193 571.59 221.293 563.849C202.934 591.425 184.08 588.039 174.156 589.974C174.156 631.581 150.836 656.255 128.012 665.931Z" fill="#9172F4"/>
<path d="M541.083 460.715C476.472 491.925 455.191 439.909 452.627 410C695.882 410.325 1194.36 410 1228.2 410C1228.2 455.839 1182.39 454.864 1168.93 449.012C1161.24 470.859 1133.68 475.67 1120.86 475.345C1126.31 494.2 1124.51 536.788 1073.74 556.294C1010.29 580.676 979.52 530.936 966.059 508.505C926.638 508.505 910.293 493.875 897.794 475.345C850.681 545.566 801.645 493.875 792.03 480.221C763.186 509.48 742.033 496.801 736.264 493.875C731.457 507.529 712.227 551.418 654.538 551.418C596.849 551.418 578.581 487.048 578.581 475.345C559.352 475.345 549.737 468.518 541.083 460.715Z" fill="#A082DA"/>
<path d="M1381.01 525.984C1371.33 587.509 1417.64 597.864 1442 595.351V410H1252.5C1257.82 470.319 1308.89 466.167 1323.89 462.648C1323.89 511.406 1354.87 521.46 1381.01 525.984Z" fill="#A082DA"/>
<path d="M69.1856 549.131C66.847 594.63 22.0874 607.335 0 608V409.5C138.696 409.167 419.5 410 434.5 410C427.679 487.826 358.596 468.312 347.877 462.325C266.024 580.062 203.659 478.289 197.812 466.316C175.4 494.254 151.039 485.274 146.167 484.276C146.167 562.102 76.0068 549.131 69.1856 549.131Z" fill="#A082DA"/>
</svg>
