<svg width="270" height="240" viewBox="0 0 270 240" fill="none" xmlns="http://www.w3.org/2000/svg">
<path d="M108.711 115.987C108.711 119.022 107.811 121.989 106.124 124.512C104.438 127.035 102.041 129.002 99.237 130.163C96.4328 131.325 93.3471 131.628 90.3703 131.036C87.3934 130.444 84.6591 128.982 82.513 126.836C80.367 124.69 78.9057 121.955 78.3139 118.979C77.7221 116.002 78.0264 112.917 79.1884 110.113C80.3503 107.309 82.3177 104.913 84.8416 103.227C87.3656 101.541 90.3328 100.642 93.3681 100.643C95.3832 100.643 97.3785 101.039 99.2402 101.811C101.102 102.582 102.793 103.712 104.218 105.137C105.643 106.562 106.773 108.253 107.544 110.115C108.315 111.977 108.711 113.972 108.711 115.987Z" fill="#7056A6"/>
<path d="M94.3879 115.55C97.4162 115.55 99.8712 113.095 99.8712 110.067C99.8712 107.039 97.4162 104.584 94.3879 104.584C91.3595 104.584 88.9045 107.039 88.9045 110.067C88.9045 113.095 91.3595 115.55 94.3879 115.55Z" fill="white"/>
<path d="M99.8711 125.036C101.842 125.036 103.44 123.438 103.44 121.467C103.44 119.496 101.842 117.898 99.8711 117.898C97.8999 117.898 96.302 119.496 96.302 121.467C96.302 123.438 97.8999 125.036 99.8711 125.036Z" fill="white"/>
<path d="M161.854 123.815C161.717 123.593 161.586 123.366 161.47 123.133C161.596 123.374 161.724 123.601 161.854 123.815Z" fill="#7056A6"/>
<path d="M189.539 111.87C189.541 113.255 189.206 114.618 188.563 115.844C188.556 115.859 188.549 115.874 188.54 115.888C188.481 115.996 188.42 116.103 188.359 116.211C188.324 116.272 188.289 116.334 188.251 116.392C186.895 118.68 184.968 120.577 182.658 121.896C180.347 123.215 177.734 123.911 175.074 123.915C172.414 123.919 169.798 123.232 167.484 121.921C165.169 120.61 163.235 118.72 161.872 116.436C161.866 116.428 161.861 116.42 161.857 116.412C161.727 116.191 161.599 115.964 161.473 115.731C161.446 115.684 161.423 115.634 161.4 115.585C160.837 114.411 160.548 113.124 160.555 111.822C160.562 110.52 160.865 109.236 161.441 108.069C162.624 110.334 164.355 112.268 166.475 113.695C168.596 115.122 171.04 115.997 173.584 116.24C174.065 116.287 174.555 116.31 175.041 116.31C175.528 116.31 176.017 116.287 176.498 116.24C179.044 115.998 181.488 115.124 183.61 113.696C185.731 112.268 187.462 110.333 188.644 108.066C189.234 109.247 189.54 110.55 189.539 111.87Z" fill="#7056A6"/>
<path d="M151.121 122.996C150.427 129.775 142.569 136.429 134.205 136.426C125.84 136.423 117.988 129.775 117.306 122.996C117.23 122.247 116.886 118.556 118.873 117.274C120.056 116.514 121.496 116.916 121.598 116.945C123.873 117.612 124.205 120.342 125.889 122.996C126.248 123.561 129.863 129.009 134.216 129.003C138.569 128.997 142.249 123.468 142.549 122.996C144.16 120.493 144.533 118.137 146.841 117.274C147.132 117.172 148.469 116.662 149.565 117.274C151.567 118.405 151.17 122.501 151.121 122.996Z" fill="#7056A6"/>
<path d="M192.208 69.9598L187.415 71.5825C187.353 71.6039 187.296 71.6395 187.249 71.6865C187.203 71.7335 187.168 71.7906 187.147 71.8534L185.527 76.6458C185.499 76.7311 185.444 76.8054 185.371 76.858C185.298 76.9107 185.211 76.939 185.121 76.939C185.031 76.939 184.943 76.9107 184.87 76.858C184.797 76.8054 184.743 76.7311 184.714 76.6458L183.094 71.8534C183.073 71.7902 183.038 71.7328 182.991 71.6857C182.944 71.6387 182.887 71.6033 182.823 71.5825L178.019 69.9598C177.933 69.9314 177.859 69.8769 177.807 69.8039C177.754 69.731 177.726 69.6433 177.726 69.5534C177.726 69.4634 177.754 69.3758 177.807 69.3028C177.859 69.2299 177.933 69.1753 178.019 69.147L182.812 67.5301C182.874 67.5086 182.931 67.4733 182.978 67.4269C183.025 67.3805 183.06 67.3242 183.083 67.2621L184.72 62.4668C184.748 62.3814 184.803 62.3072 184.876 62.2545C184.949 62.2019 185.037 62.1736 185.126 62.1736C185.216 62.1736 185.304 62.2019 185.377 62.2545C185.45 62.3072 185.505 62.3814 185.533 62.4668L187.153 67.2621C187.175 67.3238 187.21 67.3799 187.257 67.4262C187.303 67.4726 187.359 67.508 187.421 67.5301L192.214 69.147C192.299 69.1759 192.373 69.231 192.425 69.3043C192.477 69.3776 192.505 69.4655 192.504 69.5555C192.503 69.6454 192.474 69.7329 192.421 69.8055C192.368 69.878 192.293 69.932 192.208 69.9598Z" fill="#7056A6"/>
<path d="M46.7044 124.572L41.9116 126.192C41.8484 126.213 41.7909 126.248 41.7439 126.295C41.6968 126.342 41.6614 126.4 41.6406 126.463L40.0236 131.255C39.9944 131.34 39.9395 131.414 39.8663 131.466C39.7932 131.519 39.7056 131.547 39.6157 131.547C39.5258 131.547 39.4382 131.519 39.3651 131.466C39.2919 131.414 39.2369 131.34 39.2078 131.255L37.5849 126.463C37.5646 126.4 37.5298 126.343 37.4832 126.296C37.4366 126.249 37.3797 126.213 37.3169 126.192L32.5241 124.572C32.4387 124.544 32.3644 124.49 32.3118 124.417C32.2592 124.344 32.2308 124.256 32.2308 124.166C32.2308 124.076 32.2592 123.988 32.3118 123.915C32.3644 123.842 32.4387 123.788 32.5241 123.76L37.3169 122.14C37.3794 122.119 37.4361 122.084 37.4827 122.038C37.5292 121.991 37.5642 121.934 37.5849 121.872L39.2049 117.079C39.234 116.994 39.289 116.921 39.3621 116.868C39.4353 116.816 39.5229 116.788 39.6128 116.788C39.7026 116.788 39.7903 116.816 39.8634 116.868C39.9365 116.921 39.9915 116.994 40.0207 117.079L41.6377 121.872C41.6591 121.934 41.6947 121.991 41.7417 122.038C41.7887 122.084 41.8459 122.119 41.9087 122.14L46.7015 123.76C46.7869 123.788 46.8614 123.842 46.9143 123.915C46.9672 123.987 46.9959 124.075 46.9962 124.165C46.9965 124.255 46.9685 124.343 46.9161 124.416C46.8637 124.489 46.7897 124.544 46.7044 124.572Z" fill="#7056A6"/>
<path d="M188.639 171.071L183.846 172.691C183.783 172.712 183.727 172.747 183.68 172.793C183.634 172.84 183.599 172.897 183.578 172.959L181.958 177.751C181.929 177.836 181.874 177.91 181.801 177.962C181.728 178.015 181.64 178.043 181.55 178.043C181.46 178.043 181.373 178.015 181.299 177.962C181.226 177.91 181.171 177.836 181.142 177.751L179.525 172.959C179.503 172.897 179.468 172.84 179.421 172.794C179.374 172.747 179.317 172.712 179.254 172.691L174.461 171.071C174.376 171.043 174.302 170.988 174.249 170.915C174.196 170.842 174.168 170.755 174.168 170.665C174.168 170.575 174.196 170.487 174.249 170.414C174.302 170.341 174.376 170.287 174.461 170.258L179.254 168.636C179.317 168.615 179.374 168.58 179.422 168.534C179.469 168.487 179.504 168.43 179.525 168.368L181.142 163.575C181.171 163.49 181.226 163.416 181.299 163.364C181.373 163.312 181.46 163.284 181.55 163.284C181.64 163.284 181.728 163.312 181.801 163.364C181.874 163.416 181.929 163.49 181.958 163.575L183.578 168.368C183.598 168.431 183.632 168.488 183.679 168.534C183.726 168.581 183.783 168.616 183.846 168.636L188.639 170.258C188.724 170.287 188.798 170.341 188.851 170.414C188.904 170.487 188.932 170.575 188.932 170.665C188.932 170.755 188.904 170.842 188.851 170.915C188.798 170.988 188.724 171.043 188.639 171.071Z" fill="#7056A6"/>
<path d="M202.102 86.2827L198.656 87.4481C198.61 87.4621 198.569 87.4869 198.536 87.5204C198.502 87.5539 198.477 87.5951 198.463 87.6403L197.298 91.0868C197.277 91.1471 197.237 91.1993 197.185 91.2363C197.133 91.2733 197.07 91.2931 197.006 91.2931C196.942 91.2931 196.88 91.2733 196.828 91.2363C196.776 91.1993 196.736 91.1471 196.715 91.0868L195.55 87.6403C195.534 87.5955 195.508 87.5549 195.474 87.5216C195.44 87.4883 195.399 87.4631 195.354 87.4481L191.908 86.2827C191.847 86.2615 191.795 86.2221 191.758 86.1699C191.721 86.1177 191.701 86.0554 191.701 85.9914C191.701 85.9275 191.721 85.8651 191.758 85.8129C191.795 85.7607 191.847 85.7213 191.908 85.7001L195.354 84.5348C195.399 84.5187 195.44 84.4928 195.474 84.459C195.508 84.4253 195.534 84.3845 195.55 84.3396L196.715 80.8932C196.736 80.8328 196.776 80.7806 196.828 80.7436C196.88 80.7066 196.942 80.6868 197.006 80.6868C197.07 80.6868 197.133 80.7066 197.185 80.7436C197.237 80.7806 197.277 80.8328 197.298 80.8932L198.463 84.3396C198.478 84.3846 198.503 84.4256 198.537 84.4594C198.57 84.4933 198.611 84.519 198.656 84.5348L202.102 85.7001C202.163 85.7213 202.215 85.7607 202.252 85.8129C202.289 85.8651 202.309 85.9275 202.309 85.9914C202.309 86.0554 202.289 86.1177 202.252 86.1699C202.215 86.2221 202.163 86.2615 202.102 86.2827Z" fill="#7056A6"/>
<path d="M88.6948 68.8206L85.248 69.9859C85.2029 70.0017 85.1619 70.0274 85.1281 70.0612C85.0943 70.095 85.0686 70.136 85.0528 70.1811L83.8874 73.6275C83.8662 73.6879 83.8268 73.7401 83.7746 73.7771C83.7224 73.8141 83.66 73.8339 83.596 73.8339C83.5321 73.8339 83.4697 73.8141 83.4175 73.7771C83.3653 73.7401 83.3259 73.6879 83.3047 73.6275L82.1393 70.1811C82.1236 70.1364 82.0983 70.0957 82.065 70.0619C82.0318 70.0282 81.9914 70.0022 81.947 69.9859L79.3014 69.0945L78.4973 68.8235C78.437 68.8023 78.3847 68.7629 78.3477 68.7107C78.3107 68.6585 78.2909 68.5962 78.2909 68.5322C78.2909 68.4682 78.3107 68.4059 78.3477 68.3537C78.3847 68.3015 78.437 68.2621 78.4973 68.2409L81.947 67.0756C81.9916 67.0603 82.0321 67.035 82.0654 67.0017C82.0987 66.9684 82.124 66.9279 82.1393 66.8833L82.888 64.6663L83.3047 63.4369C83.3259 63.3765 83.3653 63.3243 83.4175 63.2873C83.4697 63.2503 83.5321 63.2305 83.596 63.2305C83.66 63.2305 83.7224 63.2503 83.7746 63.2873C83.8268 63.3243 83.8662 63.3765 83.8874 63.4369L84.0156 63.8185L84.4818 65.2023L85.0499 66.8833C85.0642 66.9289 85.0894 66.9703 85.1235 67.0038C85.1575 67.0373 85.1993 67.062 85.2451 67.0756L88.6919 68.2409C88.7513 68.2624 88.8027 68.3016 88.8392 68.3533C88.8756 68.4049 88.8954 68.4665 88.8957 68.5297C88.896 68.5929 88.8769 68.6547 88.841 68.7068C88.805 68.7588 88.754 68.7985 88.6948 68.8206Z" fill="#7056A6"/>
<path d="M253.897 99.3811C253.023 98.1837 251.962 96.7591 250.753 95.2675L255.319 93.9274L270 78.452L254.267 75.6144L255.252 68.3312L254.759 59.6525L251.863 33.3193L217.573 55.0146L216.819 56.6897C212.501 48.9054 206.237 41.8582 201.429 36.4482C195.893 30.2312 186.658 19.8249 170.671 13.9051C157.985 9.20891 146.82 9.51772 141.456 9.66921C136.241 9.81487 127.515 10.0538 117.274 13.8032C105.876 17.9663 97.2548 24.6086 92.0278 29.4475C90.0797 31.2433 88.2317 33.1447 86.4921 35.143L87.8673 27.7141L72.5477 14.4295L57.371 24.7222L57.0622 29.1096L40.1635 11.0181L12.3506 0L8.85432 27.6996L14.6814 39.2391L1.64034 40.2355L2.56102 56.3139L10.3286 64.3604L5.24442 66.6473L0 75.7455L7.66559 87.8066L17.7931 90.21L21.4176 89.8255C18.405 92.5115 16.316 95.218 14.7368 97.2485C10.1233 103.25 6.76828 110.121 4.87241 117.449C2.97654 124.778 2.57885 132.413 3.70314 139.899C4.2101 143.261 5.55034 152.196 11.5435 161.498C14.1657 165.577 17.1318 168.828 19.5063 171.441C21.1962 173.297 23.7397 176.103 23.8767 177.111C23.6981 177.377 23.5035 177.632 23.2939 177.874C22.3587 179.039 20.9456 180.819 20.3804 183.968C19.8704 186.914 20.2277 189.945 21.4089 192.691C23.7922 198.147 29.5028 202.013 35.6241 202.305C39.2137 202.474 41.3464 201.253 42.9081 200.362C43.3885 200.063 43.8946 199.807 44.4202 199.598C44.5601 199.552 44.7116 199.502 44.8631 199.467C45.1617 199.394 45.4657 199.346 45.7721 199.321C47.156 199.211 47.7067 199.45 50.5241 200.997C52.2052 201.923 54.3118 203.077 57.3302 204.399C61.4791 206.217 67.1606 208.705 74.392 209.643C77.052 209.975 79.7343 210.092 82.4131 209.993C85.4373 209.932 86.125 209.993 87.2146 210.779C88.1674 211.47 89.0473 213.145 90.9469 216.865C92.0123 218.942 92.9153 221.099 93.6478 223.315C94.4636 225.646 95.2357 227.86 97.3334 231.062C100.052 235.204 102.846 237.762 105.873 238.928C107.616 239.615 109.469 239.978 111.342 240C112.976 240.01 114.594 239.677 116.091 239.021C123.777 235.574 124.724 224.854 125.123 220.274C125.301 218.269 125.318 216.254 125.175 214.246C125.135 213.752 125.123 213.256 125.138 212.76L125.178 212.699C126.422 210.951 131.25 210.992 134.135 211.021C137.083 211.053 141.535 211.094 142.683 212.728C142.709 212.769 142.727 212.795 142.736 212.813C142.744 213.299 142.72 213.786 142.666 214.27C142.464 216.295 142.47 218.337 142.683 220.361C142.867 222.068 144.749 237.104 154.366 239.298C158.501 240.239 161.904 238.301 164.389 236.888C168.692 234.441 170.851 231.187 173.13 227.741C175.595 224.162 177.464 220.208 178.666 216.032C179.18 214.232 179.523 212.388 179.691 210.523C179.706 210.363 179.726 210.188 179.744 210.028C181.526 210.215 183.316 210.312 185.107 210.319C186.936 210.438 188.771 210.421 190.597 210.27C195.521 209.841 200.412 208.338 204.669 206.584C204.922 206.483 205.172 206.378 205.421 206.27L206.391 205.85L206.869 205.632C211.283 203.61 215.082 201.195 218.637 198.931C221.917 196.849 225.077 194.583 228.103 192.146C231.275 189.585 234.304 186.852 237.176 183.96C239.705 181.425 241.922 179.007 243.964 176.77C244.419 176.274 244.863 175.789 245.296 175.313C246.219 174.302 247.105 173.329 247.953 172.371C252.42 167.342 255.913 162.835 258.885 156.452C259.273 155.615 259.643 154.77 259.995 153.918C260.006 153.894 260.016 153.87 260.024 153.845C261.302 150.571 262.34 147.208 263.13 143.783C263.845 140.695 264.262 137.546 264.374 134.378C264.564 129.755 264.18 125.125 263.232 120.596C261.655 112.944 258.473 105.713 253.897 99.3811ZM244.687 85.7498L246.488 83.087L250.403 84.9719C250.391 85.0475 250.357 85.1178 250.305 85.1742C250.253 85.2306 250.186 85.2707 250.112 85.2895L243.702 87.2006L244.687 85.7498ZM242.254 86.7549C242.249 86.7561 242.244 86.7561 242.24 86.7549C241.878 86.481 241.514 86.213 241.138 85.9537C240.577 85.5653 239.994 85.1866 239.39 84.8175C239.338 84.7826 239.282 84.7505 239.227 84.7185L239.332 84.6923L242.036 83.9872L243.708 83.5532L244.559 83.3318L242.254 86.7549ZM246.042 60.2439L246.479 67.97L245.206 77.3974L244.652 81.476L244.611 81.7673L244.503 81.7935L242.831 82.2276L240.876 82.7345L237.843 83.5211L237.511 83.6056L242.828 74.3821L242.409 64.9664L245.348 53.8959L246.042 60.2439ZM227.841 73.3159L232.884 70.793L233.292 70.557L241.001 66.0996L241.357 74.0617L236.153 83.0929C233.981 82.1129 231.679 81.4525 229.318 81.1322C228.697 81.0506 228.103 80.9982 227.529 80.9429C226.57 80.8941 225.618 80.7477 224.688 80.5059L227.841 73.3159ZM227.351 64.8673L231.031 62.8805L231.754 69.7413L227.905 71.6669L227.351 64.8673ZM244.728 48.1829L244.917 49.9076L241.048 64.3837L233.126 68.9663L232.389 61.9424L242.586 49.5259L244.728 48.1829ZM238.67 52.0139L231.171 61.1529L226.801 63.5039L224.805 60.7829L238.67 52.0139ZM221.288 68.0719L223.971 62.1172L225.874 64.7158L226.538 72.6575L223.43 79.7746C221.888 78.2801 221.888 75.2707 221.888 73.8228V73.4644C221.876 71.6529 221.68 69.8473 221.306 68.0749L221.288 68.0719ZM78.3749 31.0411L78.2467 31.7374L72.5477 33.1416L72.0233 25.5437L78.3749 31.0411ZM70.3626 52.4188C70.0042 52.4771 69.64 52.5412 69.2642 52.6169L67.7753 36.0898L72.0699 34.7614H72.102L77.6144 33.4038L70.3626 52.4188ZM76.7724 39.6965L75.2661 47.778L73.4597 51.9294C73.0314 52.0022 72.5565 52.0721 72.0262 52.1508H72.0117L76.7724 39.6965ZM65.7941 29.5699L70.6161 26.2983L71.1172 33.5291L67.1577 34.7526L65.5261 33.3543L65.7941 29.5699ZM65.4008 35.1634L66.2894 35.9267L67.819 52.9287C67.2635 53.0627 66.6866 53.221 66.0884 53.4035C65.73 53.5142 65.3716 53.6337 65.0191 53.7648L64.4888 48.0955L65.4008 35.1634ZM36.7109 20.1279L63.0524 48.3082L63.4225 52.2324L61.5112 50.0882L61.3276 49.9047L38.2347 26.9101L36.7109 21.0514L36.4196 20.1774L36.7109 20.1279ZM31.2567 69.4645L34.8258 72.2787L17.0443 74.8716L14.9116 71.8796L24.0864 67.7631V67.8127L31.2567 69.4645ZM32.0638 68.2467L26.2366 63.0494L28.955 64.4507L37.0023 64.8761L39.2224 73.0566L37.1829 72.2846L32.0638 68.2467ZM22.181 59.3175L22.0702 53.5579H29.9602L36.2069 63.3757L29.3425 63.0145L22.181 59.3175ZM38.7271 65.6306L38.2522 63.8826L31.6734 53.5346L18.3962 27.2072L22.4956 29.1329L44.8893 60.1973L41.122 61.6889L38.7271 65.6306ZM42.0398 62.7173L45.2273 61.6132L44.9505 62.9941L44.6358 72.2642L45.3613 73.4528C45.1253 74.0821 44.9476 74.6472 44.796 75.16L40.9181 73.7033L39.3331 67.8797L42.0398 62.7173ZM24.1826 28.9639L31.111 26.9829L51.27 51.8274L49.2655 52.1188L48.2865 52.5528C47.4921 54.732 46.6976 56.9092 45.9032 59.0844L24.1826 28.9639ZM33.1797 27.216L37.2237 27.9676L59.0201 49.6833L55.7365 49.354L52.753 51.37L33.1797 27.216ZM46.3432 65.0887L49.7171 65.8724C49.146 66.6493 48.5885 67.4495 48.0447 68.273C47.3252 69.3596 46.6798 70.4935 46.113 71.6669L46.3432 65.0887ZM46.3927 63.6059V63.2213L46.8589 60.8907L49.0061 54.0386L56.7184 58.4727C54.4793 60.2846 52.4522 62.3438 50.6756 64.611L46.3927 63.6059ZM50.7863 53.3686L52.8258 53.0772L56.1182 50.8486L60.6313 51.303L63.3933 54.4086C61.4817 55.2411 59.6665 56.2795 57.9799 57.5054L50.7863 53.3686ZM35.2949 21.4447L36.5856 26.3624L31.956 25.5175L30.9275 21.3486L34.9628 20.4921L35.2949 21.4447ZM34.1295 18.0362L34.4908 19.1054L30.2195 20.0056L21.5924 13.0632L34.1295 18.0362ZM19.4888 13.2438L29.3949 21.2029L30.4875 25.637L23.0376 27.7753L17.9563 25.3922L19.4888 13.2438ZM20.6047 53.1559L20.6863 57.9191L15.0777 52.0751L15.3399 50.0358L14.999 48.9433L20.6047 53.1559ZM21.0214 60.3605H21.0505L28.9783 67.4339L24.4506 66.3939L11.5668 53.0568H13.9997L21.0214 60.3605ZM13.2218 48.1246L13.8569 50.1843L13.6704 51.6119H11.0482L10.8559 48.3082L13.2218 48.1246ZM10.215 75.5096L11.3804 73.4703L13.5452 72.5001L15.6691 75.4542L12.7556 79.5037L10.215 75.5096ZM13.9851 80.3048L16.316 77.0507L17.3648 81.1089L13.9851 80.3048ZM18.9382 81.2866L17.6387 76.2641L36.3788 73.5285L44.394 76.5584C44.1374 77.3567 43.6775 78.0745 43.0596 78.6414L42.9722 78.7317L18.9382 81.2866ZM254.689 141.723C253.976 144.834 253.028 147.886 251.851 150.853L251.761 151.072C249.94 155.549 247.129 160.752 242.79 165.204C242.522 165.495 242.242 165.763 241.951 166.049L241.639 166.349L238.7 169.606C238.382 169.958 238.05 170.32 237.712 170.69L237.581 170.832C235.795 172.784 233.866 174.891 231.704 177.084C228.316 180.553 224.688 183.78 220.848 186.742C218.753 188.35 216.478 189.947 213.995 191.531L213.5 191.843C207.181 195.863 200.584 199.933 191.217 201.166C189.309 201.419 187.385 201.545 185.46 201.544C184.813 201.504 184.201 201.448 183.613 201.396C182.443 201.269 181.267 201.211 180.09 201.221H179.985C177.692 201.3 175.367 201.9 173.308 204.021C171.42 205.97 171.213 207.977 171.047 209.594C170.931 210.954 170.683 212.3 170.304 213.611C169.214 217.451 165.89 222.867 165.89 222.867C162.795 227.915 161.441 228.9 160.52 229.445C159.599 229.99 158.271 230.744 156.761 230.447C154.393 229.984 153.175 227.292 152.682 226.17C151.945 224.542 151.77 222.826 151.418 219.394C151.374 218.957 151.322 218.383 151.307 217.672C151.296 216.76 151.334 215.848 151.421 214.94C151.587 212.921 151.794 210.404 149.882 207.68C146.156 202.366 139 202.296 134.266 202.249C129.374 202.2 121.979 202.127 118.093 207.613C116.237 210.235 116.374 212.609 116.493 214.709C116.61 216.296 116.599 217.888 116.461 219.473C115.718 227.892 113.926 230.395 112.557 231.006C112.076 231.222 110.981 231.467 109.011 230.715C107.846 230.269 106.258 228.635 104.681 226.229C103.172 223.93 102.642 222.441 101.94 220.402C101.073 217.819 100.014 215.304 98.7698 212.88C96.439 208.37 95.0609 205.649 92.36 203.697C89.3648 201.518 86.6348 201.224 83.8349 201.224C83.3104 201.224 82.786 201.224 82.2557 201.247C80.0091 201.329 77.7595 201.232 75.5283 200.956C69.538 200.184 64.7219 198.075 60.8498 196.379C58.181 195.214 56.2755 194.165 54.7459 193.32L53.9883 192.909C55.0855 191.407 55.9563 189.752 56.5727 187.998C56.959 186.905 56.8954 185.703 56.3957 184.657C55.896 183.611 55.0012 182.806 53.9082 182.42C52.8152 182.034 51.6135 182.097 50.5674 182.597C49.5213 183.097 48.7166 183.991 48.3302 185.084C48.0561 185.983 47.6506 186.836 47.1269 187.616C46.5113 188.436 45.771 189.155 44.933 189.746C43.6755 190.748 42.2913 191.581 40.8161 192.222C38.7329 193.122 37.5937 193.614 36.0437 193.556C33.2816 193.448 30.4438 191.639 29.4299 189.186C28.9861 188.004 28.8371 186.731 28.9958 185.478C29.1648 184.519 29.4649 184.14 30.1233 183.319C31.021 182.284 31.7185 181.092 32.1803 179.802C33.9722 174.349 30.0826 170.072 25.9628 165.548C23.6902 163.051 21.1175 160.228 18.8828 156.755C13.9064 149.029 12.7643 141.443 12.3389 138.588C11.3941 132.272 11.7314 125.83 13.3307 119.647C14.9301 113.464 17.7587 107.666 21.6478 102.6C23.798 99.8239 26.7465 96.0191 31.7171 92.9864C34.922 91.0316 37.3315 90.4169 39.6478 89.8226C41.8475 89.2574 44.1026 88.6806 46.4335 87.1365C47.4923 86.4334 48.4695 85.6145 49.347 84.6952C51.8848 82.0732 52.5053 79.9494 53.0531 78.0849C53.2871 77.2239 53.5851 76.3816 53.9446 75.5649C54.3527 74.6915 54.826 73.8501 55.3606 73.0478C59.259 67.0872 63.7488 63.2825 68.7018 61.7384C68.8941 61.6773 69.0864 61.6219 69.2846 61.5695C70.6102 61.2287 71.956 60.9718 73.314 60.8004C75.4118 60.4886 77.6844 60.1565 79.9016 59.0524C81.3287 58.3489 82.613 57.3867 83.6892 56.2149C85.237 54.5219 86.3946 52.5101 87.0806 50.3213L87.1126 50.2164C89.6416 42.7088 102.904 28.3317 120.278 21.9837C129.19 18.7295 136.725 18.5198 141.713 18.3799C146.526 18.2459 156.546 17.9663 167.644 22.074C181.582 27.2393 189.6 36.2588 194.906 42.2311C200.78 48.8413 209.095 58.1959 212.046 67.2854C212.729 69.2891 213.098 71.386 213.142 73.5023V73.7936C213.142 76.066 213.142 82.1082 217.512 86.181C220.592 89.0564 224.146 89.3856 226.742 89.6245C227.252 89.6711 227.733 89.7148 228.173 89.773C233.277 90.4548 237.572 93.7176 241.01 97.3243C243.379 99.8152 245.345 102.472 246.887 104.555C250.736 109.856 253.417 115.913 254.753 122.326C256.726 131.873 255.205 139.587 254.689 141.723Z" fill="#7056A6"/>
<path d="M264.598 134.37C264.137 141.052 262.613 147.619 260.082 153.822C261.36 150.547 262.398 147.184 263.188 143.759C263.903 140.672 264.32 137.522 264.432 134.355L264.598 134.37Z" fill="#7056A6"/>
<path d="M241.505 152.039C240.614 153.896 239.576 155.68 238.402 157.373C236.8 159.702 234.968 161.865 232.934 163.829L232.622 164.12C231.779 164.905 230.66 165.325 229.509 165.29C228.357 165.254 227.266 164.766 226.473 163.93C225.68 163.095 225.249 161.98 225.274 160.828C225.299 159.677 225.777 158.581 226.605 157.781C226.879 157.521 227.15 157.256 227.41 156.988C228.806 155.58 230.074 154.049 231.197 152.414C232.103 151.11 232.905 149.737 233.595 148.307C234.967 145.393 235.401 144.429 235.401 143.232C235.401 143.205 235.361 139.98 233.275 138.57C232.237 137.863 231.031 137.83 229.968 137.804C227.849 137.746 226.23 138.535 225.262 139.01C223.164 140.03 221.941 141.309 219.96 143.471C218.953 144.564 218.038 145.738 217.224 146.981C216.795 147.602 216.326 148.283 215.717 149.105C215.717 149.105 215.356 149.594 214.945 150.125C212.964 152.682 211.973 153.958 211.117 154.585C209.506 155.75 206.531 156.703 204.888 155.386C203.524 154.293 203.475 151.972 203.859 150.489C204.424 148.298 205.977 147.747 208.664 143.945L210.018 142.031C210.893 140.779 211.356 140.141 211.668 139.742C212.169 139.095 212.757 138.39 213.512 137.565C215.589 135.299 217.736 132.957 221.425 131.156C222.777 130.498 225.938 128.954 230.201 129.07C231.768 129.111 235.026 129.198 238.178 131.337C243.993 135.278 244.157 142.46 244.157 143.252C244.139 146.457 243.09 148.68 241.505 152.039Z" fill="#7056A6"/>
</svg>
