<svg width="4917" height="1302" viewBox="0 0 4917 1302" fill="none" xmlns="http://www.w3.org/2000/svg">
<path d="M2592.14 650.263C2795.02 726.261 2922.89 588.062 2961.47 509.463V0.543823H0V1026.86C16.3392 1037.72 76.0225 1022.34 103.822 1013.29C104.956 1059.66 148.074 1160.53 311.465 1193.1C515.705 1233.82 590.592 1054 619.526 1013.29C879.932 1098.11 900.356 858.916 910.568 833.471C995.667 830.078 1036.52 770.704 1050.13 731.69C1356.49 840.262 1427.97 541.692 1438.19 494.193C1514.78 521.335 1572.64 494.193 1616.9 467.05C1641.4 625.832 1792.77 655.351 1865.39 650.263C1865.39 713.027 1894.32 831.49 2040.69 886.059C2219.06 952.558 2341.95 810.854 2381.09 731.69C2542.78 796.153 2592.14 699.457 2592.14 650.263Z" fill="#7056A6"/>
<path d="M4175.78 545.169C4175.78 816.97 3977.66 809.799 3878.61 772.239V3.95837H4917V1033.46C4735.96 1014.67 4712.05 859.311 4706.93 833.702C4626.66 833.702 4597.63 760.289 4592.5 738.094C4314.12 738.094 4290.21 516.146 4290.21 497.366C4279.96 516.146 4201.4 545.169 4175.78 545.169Z" fill="#7056A6"/>
<path d="M3371.5 608C3499.1 735.6 3761.67 770.167 3877 771.5L4061.5 513.5C4344.67 343.833 4912.7 4 4915.5 2H2802.5H2794.5L2950 513.5C3037.33 491.833 3243.9 480.4 3371.5 608Z" fill="#7056A6"/>
<path d="M4915.5 2H2802.5H2794.5L2950 513.5C3037.33 491.833 3243.9 480.4 3371.5 608C3499.1 735.6 3761.67 770.167 3877 771.5L4061.5 513.5C4344.67 343.833 4912.7 4 4915.5 2ZM4915.5 2C4915.5 17 4915.5 33 4915.5 33" stroke="#7056A6" stroke-width="3"/>
</svg>
