<svg width="4917" viewBox="0 0 4917 2312" fill="none" xmlns="http://www.w3.org/2000/svg">
<defs>
    <filter id="shadow" x="-20%" y="-20%" width="140%" height="130%">
        <feGaussianBlur in="SourceAlpha" stdDeviation="250"/>
        <feOffset dx="0" dy="-131" result="offsetblur"/>
        <feFlood flood-color="rgba(255,255,255,0.2)"/>
        <feComposite in2="offsetblur" operator="in"/>
        <feMerge>
            <feMergeNode/>
            <feMergeNode in="SourceGraphic"/>
        </feMerge>
    </filter>
</defs>
<g clip-path="url(#clip0_749_2092)">
<path d="M4656.33 1307.54C4544.56 1024.13 4783.54 923.761 4917 909V2312.39H0V922.625C203.086 934.888 269.759 1090.1 277.71 1166.18C356.082 1094.64 403.787 1120.19 453.195 1166.18C650.83 980.873 789.969 1113.95 834.834 1203.64C885.946 1182.64 1015.09 1153.23 1122.77 1203.64C1257.36 1266.66 1252.25 1397.8 1269.29 1447.19C1403.88 1447.19 1402.18 1520.43 1426.03 1537.46C1463.51 1520.43 1519.74 1520.43 1553.81 1520.43C1613.78 1346.03 1749.18 1301.29 1809.37 1300.72C1803.13 1253.04 1821.3 1150.17 1943.97 1120.19C2097.31 1082.72 2163.75 1190.02 2187.6 1237.71C2321.18 1187.29 2407.96 1323.43 2434.65 1397.8C2628.87 1390.99 2635.69 1506.8 2656.13 1554.49C2746.43 1387.58 2942.36 1433.57 2996.88 1447.19C2941 1300.04 3066.74 1260.98 3136.59 1259.85C3134.32 1217.84 3144.43 1127 3203.03 1099.75C3376.82 1009.49 3463.71 1127 3494.37 1161.07C3654.53 1167.88 3657.93 1220.68 3700.53 1237.71C4034.46 1142.33 4068.54 1414.83 4095.8 1467.63C4290.02 1356.93 4385.43 1488.07 4433.14 1520.43C4424.62 1333.08 4579.66 1307.54 4656.33 1307.54Z" fill="#29002B" filter="url(#shadow)"/>
</g>
<defs>
<clipPath id="clip0_749_2092">
<rect width="4917" height="2312" fill="white"/>
</clipPath>
</defs>
</svg>
