<svg width="4917" height="967" viewBox="0 0 4917 967" fill="none" xmlns="http://www.w3.org/2000/svg">
<path d="M1577.55 0.00616455C1576.98 52.2244 1604.18 158.31 1717.54 164.906C1714.13 265.495 1830.22 549.122 2115.34 349.594C2207.96 371.958 2232.13 360.971 2233.2 351.351C2236.01 432.789 2276.86 597.425 2419.24 618.381C2562.65 639.488 2631.51 521.639 2648.01 460.077C2692.4 479.864 2795.18 499.321 2851.18 418.85C2888.74 460.077 2963.86 572.207 3131.18 559.015C3117.52 618.381 3126.05 855.835 3385.56 789.875C3412.88 837.696 3511.91 1037.24 3754.34 939.935C3913.11 876.208 3913.11 726.451 3913.11 651.361C3971.73 657.957 4092.04 628.933 4104.33 460.077C4136.77 460.077 4206.08 442.268 4223.84 371.032C4275.06 392.469 4432.13 527.687 4628.47 313.317C4713.83 220.113 4713.83 23.6418 4713.83 0.00616455H1577.55Z" fill="#9172F4"/>
<path d="M437.109 873.898C224.315 973.017 57.0388 778.634 0 669.053V-0.000488281H1733.19C1738.27 20.374 1732.51 77.3123 1668.81 142.07C1589.18 223.017 1567.15 199.889 1519.72 199.889C1519.72 386.233 1352.55 442.73 1268.97 447.686C1274.05 503.303 1253.05 619.162 1128.35 637.664C972.483 660.792 933.516 569.933 904.714 543.501C845.416 561.673 799.672 551.761 755.622 525.329C692.936 619.492 628.556 607.928 594.671 614.536C594.671 756.607 515.043 840.859 437.109 873.898Z" fill="#9172F4"/>
</svg>
