<svg width="100%"  viewBox="0 0 4917 2000" fill="none" xmlns="http://www.w3.org/2000/svg">
    <defs>
        <filter id="shadow" x="-20%" y="-20%" width="140%" height="140%">
            <feGaussianBlur in="SourceAlpha" stdDeviation="250"/>
            <feOffset dx="0" dy="-41" result="offsetblur"/>
            <feFlood flood-color="rgba(255,255,255,0.2)"/>
            <feComposite in2="offsetblur" operator="in"/>
            <feMerge>
                <feMergeNode/>
                <feMergeNode in="SourceGraphic"/>
            </feMerge>
        </filter>
    </defs>
    <g clip-path="url(#clip0_720_2530)">
        <path
            d="M4656.33 995.537C4544.56 712.133 4783.54 611.761 4917 597V2000.39H0V610.625C203.086 622.888 269.759 778.101 277.71 854.175C356.082 782.643 403.787 808.19 453.195 854.175C650.83 668.873 789.969 801.945 834.834 891.645C885.946 870.639 1015.09 841.231 1122.77 891.645C1257.36 954.661 1252.25 1085.8 1269.29 1135.19C1403.88 1135.19 1402.18 1208.43 1426.03 1225.46C1463.51 1208.43 1519.74 1208.43 1553.81 1208.43C1613.78 1034.03 1749.18 989.292 1809.37 988.724C1803.13 941.036 1821.3 838.166 1943.97 808.19C2097.31 770.721 2163.75 878.019 2187.6 925.707C2321.18 875.294 2407.96 1011.43 2434.65 1085.8C2628.87 1078.99 2635.69 1194.8 2656.13 1242.49C2746.43 1075.58 2942.36 1121.57 2996.88 1135.19C2941 988.043 3066.74 948.984 3136.59 947.848C3134.32 905.837 3144.43 815.003 3203.03 787.753C3376.82 697.486 3463.71 815.003 3494.37 849.066C3654.53 855.878 3657.93 908.676 3700.53 925.707C4034.46 830.331 4068.54 1102.83 4095.8 1155.63C4290.02 1044.93 4385.43 1176.07 4433.14 1208.43C4424.62 1021.08 4579.66 995.537 4656.33 995.537Z"
            fill="#29002B" filter="url(#shadow)" />
    </g>
    <defs>
        <clipPath id="clip0_720_2530">
            <rect width="4917" height="2000" fill="white"/>
        </clipPath>
    </defs>
</svg>