<svg width="4924" height="745" viewBox="0 0 4924 745" fill="none" xmlns="http://www.w3.org/2000/svg">
<path d="M1847.57 567.793C1626.95 461.226 1554.29 638.837 1545.53 740.964C2376.15 739.853 4078.24 740.964 4193.8 740.964C4193.8 584.444 4037.38 587.773 3991.41 607.754C3965.15 533.158 3871.04 516.729 3827.26 517.84C3845.87 453.455 3839.74 308.036 3666.39 241.432C3449.71 158.176 3344.65 328.017 3298.69 404.612C3164.08 404.612 3108.27 454.566 3065.59 517.84C2904.72 278.064 2737.28 454.566 2704.45 501.189C2605.96 401.282 2533.73 444.575 2514.04 454.566C2497.62 407.942 2431.96 258.083 2234.98 258.083C2037.99 258.083 1975.61 477.877 1975.61 517.84C1909.95 517.84 1877.12 541.151 1847.57 567.793Z" fill="#A082DA"/>
<path d="M4715.57 344.929C4682.52 134.844 4840.64 99.4865 4923.83 108.068V740.964H4276.77C4294.95 534.999 4469.3 549.179 4520.54 561.194C4520.54 394.705 4626.32 360.376 4715.57 344.929Z" fill="#A082DA"/>
<path d="M236.24 265.889C228.255 110.531 75.4194 67.1485 0 64.8772V742.672C473.589 743.808 1432.42 740.965 1483.64 740.965C1460.35 475.22 1224.46 541.855 1187.86 562.297C908.36 160.273 695.411 507.785 675.447 548.669C598.919 453.273 515.736 483.936 499.099 487.343C499.099 221.598 259.531 265.889 236.24 265.889Z" fill="#A082DA"/>
</svg>
