<svg width="1440" height="302" viewBox="0 0 1440 302" fill="none" xmlns="http://www.w3.org/2000/svg">
<path d="M326.593 302C326.388 286.491 336.184 254.983 377.007 253.024C375.778 223.149 417.585 138.911 520.258 198.172C553.612 191.529 562.315 194.792 562.7 197.649C563.711 173.462 578.422 124.565 629.695 118.341C681.339 112.072 706.136 147.074 712.079 165.358C728.065 159.481 765.076 153.702 785.242 177.602C798.768 165.358 825.82 132.055 886.071 135.973C881.153 118.341 884.227 47.8165 977.678 67.4068C987.515 53.2039 1023.18 -6.06027 1110.48 22.8386C1167.65 41.7656 1167.65 86.2438 1167.65 108.546C1188.76 106.587 1232.09 115.207 1236.51 165.358C1248.19 165.358 1273.16 170.647 1279.55 191.804C1297.99 185.438 1354.56 145.277 1425.26 208.946C1456 236.628 1456 294.98 1456 302H326.593Z" fill="#7056A6"/>
<path d="M152.366 9.15222C78.191 -24.063 19.8824 41.0757 0 77.797V302H604.149C605.921 295.172 603.913 276.092 581.708 254.392C553.951 227.266 546.274 235.016 529.738 235.016C529.738 172.571 471.469 153.639 442.334 151.978C444.106 133.341 436.783 94.5157 393.317 88.3155C338.985 80.5653 325.402 111.013 315.362 119.87C294.693 113.78 278.747 117.102 263.393 125.959C241.542 94.4049 219.1 98.28 207.289 96.0657C207.289 48.4572 179.532 20.224 152.366 9.15222Z" fill="#7056A6"/>
</svg>
