<svg width="4972" height="1031" viewBox="0 0 4972 1031" fill="none" xmlns="http://www.w3.org/2000/svg">
<path d="M1115.18 1031C1114.48 978.054 1147.93 870.489 1287.32 863.802C1283.12 761.81 1425.88 474.229 1776.47 676.539C1890.36 653.863 1920.07 665.003 1921.39 674.757C1924.84 592.184 1975.07 425.253 2150.15 404.005C2326.49 382.604 2411.16 502.095 2431.45 564.516C2486.04 544.453 2612.42 524.724 2681.27 606.317C2727.46 564.516 2819.83 450.822 3025.56 464.198C3008.77 404.005 3019.27 163.241 3338.36 230.121C3371.95 181.633 3493.72 -20.6893 3791.82 77.9687C3987.05 142.584 3987.05 294.428 3987.05 370.565C4059.13 363.878 4207.06 393.305 4222.18 564.516C4262.07 564.516 4347.3 582.573 4369.13 654.802C4432.11 633.066 4625.25 495.964 4866.67 713.322C4971.64 807.825 4971.64 1007.03 4971.64 1031H1115.18Z" fill="#7056A6"/>
<path d="M520.267 31.2448C266.99 -82.1488 67.8901 140.229 0 265.592V1031H2062.92C2068.97 1007.69 2062.11 942.553 1986.29 868.469C1891.51 775.864 1865.3 802.323 1808.83 802.323C1808.83 589.143 1609.87 524.508 1510.39 518.839C1516.44 455.212 1491.43 322.668 1343.01 301.501C1157.49 275.042 1111.11 378.987 1076.83 409.225C1006.25 388.436 951.806 399.775 899.376 430.014C824.764 322.29 748.135 335.519 707.805 327.959C707.805 165.428 613.027 69.0427 520.267 31.2448Z" fill="#7056A6"/>
</svg>
