<svg width="4917" height="967" viewBox="0 0 4917 967" fill="none" xmlns="http://www.w3.org/2000/svg">
<path d="M1577.55 966.321C1576.98 914.103 1604.18 808.017 1717.54 801.421C1714.13 700.832 1830.22 417.205 2115.34 616.734C2207.96 594.369 2232.13 605.356 2233.2 614.976C2236.01 533.538 2276.86 368.902 2419.24 347.947C2562.65 326.839 2631.51 444.688 2648.01 506.25C2692.4 486.463 2795.18 467.006 2851.18 547.477C2888.74 506.25 2963.86 394.12 3131.18 407.312C3117.52 347.947 3126.05 110.492 3385.56 176.452C3412.88 128.631 3511.91 -70.9093 3754.34 26.3923C3913.11 90.1192 3913.11 239.876 3913.11 314.966C3971.73 308.37 4092.04 337.394 4104.33 506.25C4136.77 506.25 4206.08 524.059 4223.84 595.295C4275.06 573.858 4432.13 438.641 4628.47 653.01C4713.83 746.214 4713.83 942.685 4713.83 966.321H1577.55Z" fill="#9172F4"/>
<path d="M437.109 92.4287C224.315 -6.69014 57.0388 187.693 0 297.274V966.328H1733.19C1738.27 945.953 1732.51 889.015 1668.81 824.257C1589.18 743.31 1567.15 766.438 1519.72 766.438C1519.72 580.094 1352.55 523.597 1268.97 518.641C1274.05 463.024 1253.05 347.165 1128.35 328.663C972.483 305.535 933.516 396.394 904.714 422.826C845.416 404.654 799.672 414.566 755.622 440.998C692.936 346.835 628.556 358.399 594.671 351.791C594.671 209.72 515.043 125.468 437.109 92.4287Z" fill="#9172F4"/>
</svg>
