<svg width="4924" height="745" viewBox="0 0 4924 745" fill="none" xmlns="http://www.w3.org/2000/svg">
<path d="M1847.57 176.587C1626.95 283.153 1554.29 105.542 1545.53 3.41537C2376.15 4.52579 4078.24 3.41537 4193.8 3.41537C4193.8 159.935 4037.38 156.606 3991.41 136.625C3965.15 211.222 3871.04 227.65 3827.26 226.54C3845.87 290.924 3839.74 436.343 3666.39 502.947C3449.71 586.203 3344.65 416.362 3298.69 339.767C3164.08 339.767 3108.27 289.814 3065.59 226.54C2904.72 466.315 2737.28 289.814 2704.45 243.191C2605.96 343.097 2533.73 299.804 2514.04 289.814C2497.62 336.437 2431.96 486.296 2234.98 486.296C2037.99 486.296 1975.61 266.502 1975.61 226.54C1909.95 226.54 1877.12 203.228 1847.57 176.587Z" fill="#A082DA"/>
<path d="M4715.57 399.45C4682.52 609.535 4840.64 644.893 4923.83 636.311V3.41461H4276.77C4294.95 209.38 4469.3 195.2 4520.54 183.185C4520.54 349.674 4626.32 384.003 4715.57 399.45Z" fill="#A082DA"/>
<path d="M236.24 478.49C228.255 633.848 75.4194 677.231 0 679.502V1.70734C473.589 0.571655 1432.42 3.41461 1483.64 3.41461C1460.35 269.159 1224.46 202.525 1187.86 182.083C908.36 584.107 695.411 236.594 675.447 195.711C598.919 291.106 515.736 260.443 499.099 257.036C499.099 522.781 259.531 478.49 236.24 478.49Z" fill="#A082DA"/>
</svg>
