<svg width="4917" height="1301" viewBox="0 0 4917 1301" fill="none" xmlns="http://www.w3.org/2000/svg">
<path d="M2592.14 651.237C2795.02 575.239 2922.89 713.438 2961.47 792.037V1300.96H0V274.641C16.3392 263.784 76.0225 279.165 103.822 288.212C104.956 241.844 148.074 140.966 311.465 108.395C515.705 67.6821 590.592 247.499 619.526 288.212C879.932 203.393 900.356 442.584 910.568 468.029C995.667 471.422 1036.52 530.796 1050.13 569.81C1356.49 461.238 1427.97 759.808 1438.19 807.307C1514.78 780.165 1572.64 807.307 1616.9 834.45C1641.4 675.668 1792.77 646.149 1865.39 651.237C1865.39 588.473 1894.32 470.01 2040.69 415.441C2219.06 348.942 2341.95 490.646 2381.09 569.81C2542.78 505.347 2592.14 602.043 2592.14 651.237Z" fill="#7056A6"/>
<path d="M4175.78 756.331C4175.78 484.53 3977.66 491.701 3878.61 529.261V1297.54H4917V268.045C4735.96 286.825 4712.05 442.188 4706.93 467.798C4626.66 467.798 4597.63 541.211 4592.5 563.406C4314.12 563.406 4290.21 785.354 4290.21 804.134C4279.96 785.354 4201.4 756.331 4175.78 756.331Z" fill="#7056A6"/>
<path d="M3371.5 693.5C3499.1 565.9 3761.67 531.333 3877 530L4061.5 788C4344.67 957.667 4912.7 1297.5 4915.5 1299.5H2802.5H2794.5L2950 788C3037.33 809.667 3243.9 821.1 3371.5 693.5Z" fill="#7056A6"/>
<path d="M4915.5 1299.5H2802.5H2794.5L2950 788C3037.33 809.667 3243.9 821.1 3371.5 693.5C3499.1 565.9 3761.67 531.333 3877 530L4061.5 788C4344.67 957.667 4912.7 1297.5 4915.5 1299.5ZM4915.5 1299.5C4915.5 1284.5 4915.5 1268.5 4915.5 1268.5" stroke="#7056A6" stroke-width="3"/>
</svg>
