<svg width="1520" height="383" viewBox="0 0 1520 383" fill="none" xmlns="http://www.w3.org/2000/svg">
<g clip-path="url(#clip0_380_464)">
<path d="M-347 244C-263 146.837 48.037 -28.1524 620.186 49.1972C1192.34 126.547 1458.46 81.4262 1520 49.1972" stroke="#1B1B1C"/>
<path d="M-347 281C-263 183.837 48.037 8.84765 620.186 86.1972C1192.34 163.547 1458.46 118.426 1520 86.1972" stroke="#1B1B1C"/>
<path d="M-347 318C-263 220.837 48.037 45.8476 620.186 123.197C1192.34 200.547 1458.46 155.426 1520 123.197" stroke="#1B1B1C"/>
<path d="M-347 355C-263 257.837 48.037 82.8476 620.186 160.197C1192.34 237.547 1458.46 192.426 1520 160.197" stroke="#1B1B1C"/>
<path d="M-347 391C-263 293.837 48.037 118.848 620.186 196.197C1192.34 273.547 1458.46 228.426 1520 196.197" stroke="#1B1B1C"/>
<path d="M-347 429C-263 331.837 48.037 156.848 620.186 234.197C1192.34 311.547 1458.46 266.426 1520 234.197" stroke="#1B1B1C"/>
<path d="M-347 465C-263 367.837 48.037 192.848 620.186 270.197C1192.34 347.547 1458.46 302.426 1520 270.197" stroke="#1B1B1C"/>
<path d="M-347 502C-263 404.837 48.037 229.848 620.186 307.197C1192.34 384.547 1458.46 339.426 1520 307.197" stroke="#1B1B1C"/>
</g>
<defs>
<clipPath id="clip0_380_464">
<rect width="1520" height="383" fill="white"/>
</clipPath>
</defs>
</svg>
