<svg width="100%"  viewBox="0 0 4919 1039" fill="none" xmlns="http://www.w3.org/2000/svg">
<path d="M1 925.5C134.5 840.5 1039.31 722.095 2546.95 925.622C4054.59 1129.15 4755.83 1010.42 4918 925.622" stroke="#1B1B1C"/>
<path d="M1 809.358C134.5 724.359 1039.31 605.953 2546.95 809.48C4054.59 1013.01 4755.83 894.283 4918 809.48" stroke="#1B1B1C"/>
<path d="M1 693.358C134.5 608.359 1039.31 489.953 2546.95 693.48C4054.59 897.007 4755.83 778.283 4918 693.48" stroke="#1B1B1C"/>
<path d="M1 577.358C134.5 492.359 1039.31 373.953 2546.95 577.48C4054.59 781.007 4755.83 662.283 4918 577.48" stroke="#1B1B1C"/>
<path d="M1 462.358C134.5 377.359 1039.31 258.953 2546.95 462.48C4054.59 666.007 4755.83 547.283 4918 462.48" stroke="#1B1B1C"/>
<path d="M1 345.358C134.5 260.359 1039.31 141.953 2546.95 345.48C4054.59 549.007 4755.83 430.283 4918 345.48" stroke="#1B1B1C"/>
<path d="M1 229.358C134.5 144.359 1039.31 25.9532 2546.95 229.48C4054.59 433.007 4755.83 314.283 4918 229.48" stroke="#1B1B1C"/>
<path d="M1 113.358C134.5 28.3585 1039.31 -90.0468 2546.95 113.48C4054.59 317.007 4755.83 198.283 4918 113.48" stroke="#1B1B1C"/>
</svg>
